<?xml version="1.0" encoding="utf-8"?>
<!-- Generator: Adobe Illustrator 27.0.0, SVG Export Plug-In . SVG Version: 6.00 Build 0)  -->
<svg version="1.1" id="Layer_1" xmlns="http://www.w3.org/2000/svg" xmlns:xlink="http://www.w3.org/1999/xlink" x="0px" y="0px"
	 viewBox="0 0 1366 768" style="enable-background:new 0 0 1366 768;" xml:space="preserve">
<style type="text/css">
	.st0{opacity:0.5;}
	.st1{opacity:0.5;fill:#140F10;}
	.st2{fill:#F4F2F2;}
</style>
<g class="st0">
	<path class="st1" d="M49.05,188.63c-21.1-0.19-42.2-0.7-63.29-0.4c-6.57,0.09-8.48-2.24-8.12-7.83c3.49-3.75,12.72,3.25,12.82-5.26
		c0.18-15.86,1.72-31.8-0.85-47.63c-1.19-1.35-2.63-1.04-4.1-0.59c-2-0.09-3.99-0.18-5.99-0.28c-2.32-2.38-1.11-5.47-1.74-8.18
		c3.16-1.82,6.62-1.13,9.99-1.13c19.78-0.04,39.54-0.13,59.32,0.01c4.77,0.03,7.64-0.6,7.49-6.33C54.23,97.51,54.29,84,54.6,70.5
		c0.11-4.99-2.02-6.14-6.64-6.02C34,64.82,20.04,64.88,6.08,65.05c-6.82-0.8-13.64-0.8-20.46,0c-3.96-0.44-8.32-0.39-8.17-6.03
		c1.28-4.47,5.13-3.91,8.36-3.51c6.73,0.83,7.81-2.25,7.6-7.95c-0.43-11.52-0.51-23.09,0.02-34.6C-6.24,5.84-7.47,1.41-16.2,2.79
		c-1.87,0.3-4.08,0.33-5.41-2.79C452.6,0,926.24,0,1402,0c-7.73,4.88-14.63,3.06-20.73,2.64c-8.55-0.59-10.2,2.56-9.8,9.97
		c0.61,11.51,0.48,23.08,0.03,34.6c-0.24,6.13,1.08,9.25,8.22,8.28c4.01-0.55,8.19-0.31,12.27-0.04c3.58,0.23,8.96-2.03,8.62,4.87
		c-0.34,6.98-5.92,4.08-9.21,4.11c-24.56,0.26-49.14,0.46-73.69-0.01c-7.4-0.14-9.22,2.08-8.88,8.83
		c0.55,11.18,0.65,22.44-0.04,33.61c-0.5,7.98,1.54,10.8,10.48,10.56c24.21-0.64,48.45-0.26,72.67-0.07
		c3.44,0.03,8.87-2.32,8.65,4.74c-0.22,7.09-5.76,4.21-9.04,4.27c-22.48,0.43-22.47,0.32-22.49,22.18c0,6.92,0.42,13.88-0.18,20.76
		c-0.65,7.41,1.27,11.2,9.86,10.08c4.69-0.61,9.55-0.21,14.31-0.05c3.37,0.11,7.88-1.59,7.62,4.69c-0.22,5.71-4.4,3.94-7.34,3.96
		c-24.56,0.13-49.14,0.43-73.69-0.06c-8.2-0.17-11.58,1.4-10.89,10.11c0.87,10.81,0.74,21.78-0.02,32.61
		c-0.57,8.02,1.61,10.7,10.35,10.49c24.55-0.6,49.13-0.29,73.69-0.19c3.23,0.01,7.95-1.9,7.86,4.45c-0.1,6.39-4.91,3.9-8.08,4.31
		c-7.61,0.98-17.79-3.51-22.24,2.07c-3.67,4.61-1.07,13.88-1.24,21.08c-0.03,1.32-0.06,2.64-0.03,3.96
		c0.22,8.19-2.52,18.42,1.56,23.99c4.03,5.52,15.26,1.53,23.31,1.83c4.38,0.17,6.89,0.61,6.88,5.83c0,5.51-3.08,5.49-7.17,5.48
		c-24.56-0.06-49.14,0.21-73.7-0.12c-6.5-0.09-9.03,1.3-8.72,8.05c0.55,12.17,0.58,24.41,0,36.58c-0.35,7.25,2.58,8.69,9.41,8.58
		c23.88-0.38,47.76-0.19,71.66-0.22c4.34-0.01,8.72-1.14,8.55,6.01c-0.17,7-4.78,4.96-8.35,5.02c-18.44,0.32-18.46,0.27-18.55,18.1
		c-0.04,9.23,0.32,18.47-0.08,27.69c-0.24,5.56,1.53,7.88,7.45,7.29c3.71-0.38,7.51,0.07,11.25-0.1c4.76-0.21,8.36-0.39,8.32,6.35
		c-0.04,6.35-2.22,7.62-8.28,7.53c-23.2-0.34-46.41,0.01-69.61-0.32c-6.01-0.09-8.48,1.08-8.21,7.48
		c0.53,12.84,0.46,25.72,0.05,38.56c-0.19,5.94,2.28,7.07,7.78,7.02c23.2-0.22,46.41-0.12,69.61,0.02c3.57,0.02,8.35-1.97,8.61,4.91
		c0.28,7.35-4.67,5.7-8.78,5.76c-20.26,0.28-20.26,0.25-20.24,19.49c0.01,8.57,0.51,17.18-0.13,25.7c-0.51,6.82,2.17,8.64,8.66,7.95
		c4.38-0.47,8.86-0.03,13.3-0.11c3.89-0.07,7.14-0.48,7.19,5.29c0.06,6.03-3.14,6.07-7.65,6.05c-24.56-0.11-49.14,0.16-73.7-0.23
		c-6.91-0.11-9.59,1.41-9.19,8.6c0.64,11.83,0.57,23.74,0.01,35.59c-0.32,6.75,1.43,9.01,8.87,8.86
		c24.22-0.49,48.45-0.12,72.67-0.19c4.93-0.01,9.13-0.72,9.11,6.68c-0.02,6.97-3.41,7.02-8.75,7.02
		c-18.01,0.02-17.99,0.16-17.93,17.43c0.03,9.23,0.36,18.48-0.17,27.68c-0.36,6.31,2.11,8.27,8.24,7.58
		c3.37-0.38,6.85,0.21,10.22-0.13c5.87-0.6,8.47,0.8,8.39,7.37c-0.08,6.61-3.53,6.44-8.34,6.42c-24.56-0.1-49.14,0.2-73.7-0.14
		c-6.53-0.09-8.91,1.28-8.58,8.06c0.61,12.5,0.43,25.05,0.03,37.57c-0.18,5.7,1.87,7.27,7.57,7.21c24.56-0.26,49.14-0.19,73.7-0.09
		c3.92,0.02,9.01-2,9.2,5.45c0.2,8.08-5.31,5.98-9.6,6.03c-19.28,0.24-19.29,0.19-19.36,19.12c-0.03,9.23,0.23,18.47-0.1,27.69
		c-0.17,4.76,1.48,6.41,6.36,6.11c5.44-0.34,10.92,0.06,16.37-0.13c3.89-0.13,6.31,0.28,6.37,5.12c0.06,4.94-1.83,6.05-6.54,6.01
		c-24.23-0.19-48.46,0.14-72.67-0.28c-7.14-0.12-9.43,1.82-9.1,8.77c0.58,11.84,0.73,23.76-0.02,35.58c-0.51,7.9,2.66,9.17,9.9,9.03
		c23.19-0.44,46.4-0.29,69.61-0.17c3.53,0.02,8.89-2.13,8.66,4.81c-0.21,6.27-5.11,4.03-8.28,4.11
		c-18.06,0.46-18.09,0.38-18.15,17.46c-0.03,9.23,0.38,18.48-0.08,27.69c-0.3,5.87,1.27,8.63,7.81,7.93
		c4.04-0.43,8.18-0.13,12.28-0.06c2.93,0.05,6.25-0.78,6.43,3.99c0.21,5.26-3.28,4.78-6.73,4.77c-23.2-0.03-46.42,0.34-69.6-0.25
		c-9.02-0.23-12.7,1.71-11.9,11.19c0.95,11.13,0.7,22.42,0.07,33.6c-0.41,7.23,2.46,8.59,9.25,8.49
		c23.54-0.35,47.08-0.16,70.63-0.04c3.59,0.02,8.79-1.94,8.31,5.02c-0.45,6.48-5.45,3.66-8.42,3.73
		c-18.07,0.46-18.08,0.33-18.08,17.65c0,9.56,0.36,19.13-0.08,28.67c-0.23,5.12,1.05,7.38,6.64,6.79c3.37-0.36,6.82-0.1,10.23-0.05
		c4.88,0.06,9.97-1.59,9.96,6.85c-0.01,7.89-4.16,7.3-9.54,7.28c-24.23-0.12-48.46,0.11-72.67-0.22c-6.16-0.09-8.29,1.38-8.03,7.63
		c0.53,12.51,0.46,25.06,0.03,37.57c-0.21,6.06,1.7,7.93,8.07,7.84c24.56-0.32,49.13-0.07,73.7-0.12c4.57-0.01,8.55-0.72,8.42,6.22
		c-0.11,6.24-2.19,7.64-8.29,7.64c-18.1,0.02-18.09,0.28-18.04,17.39c0.02,9.23,0.37,18.48-0.18,27.68
		c-0.38,6.31,2.02,8.28,8.16,7.52c3.03-0.37,6.14,0.12,9.2-0.1c5.83-0.44,9.31,0.22,9.23,7.65c-0.08,7.38-4.12,6.75-9.05,6.74
		c-24.56-0.04-49.14,0.22-73.7-0.1c-6.25-0.08-8.25,1.44-8,7.64c0.51,12.51,0.5,25.06-0.02,37.57c-0.26,6.27,2,7.72,8.11,7.64
		c24.56-0.31,49.13-0.09,73.7-0.2c5.1-0.02,8.93-0.36,8.89,6.88c-0.03,6.79-2.9,7.18-8.51,7.18c-20.58-0.02-20.59,0.15-20.69,19.83
		c-0.02,4.62-0.15,9.24,0.02,13.84c0.17,4.56,0.46,8.12-6.53,8.09c-6.67-0.02-8.04-2.38-7.75-8.14c0.44-8.88-0.04-17.8,0.21-26.7
		c0.13-4.66-0.64-7.2-6.53-7.15c-32.41,0.24-64.83,0.18-97.25,0.02c-4.93-0.02-6.56,1.68-6.44,6.34c0.24,9.55-0.22,19.13,0.12,28.68
		c0.18,5.04-1.17,7.03-6.78,6.88c-5.02-0.13-7.44-1.02-7.19-6.53c0.43-9.54-0.09-19.12,0.28-28.67c0.2-5.26-1.82-6.74-7.09-6.71
		c-32.07,0.2-64.15,0.28-96.22,0.01c-6.35-0.05-7.23,2.58-7.08,7.67c0.28,9.22-0.29,18.47,0.13,27.68c0.24,5.55-2.22,6.46-7.22,6.53
		c-5.35,0.07-7.18-1.57-6.96-6.78c0.4-9.22-0.11-18.47,0.26-27.68c0.21-5.32-1.04-7.57-7.23-7.51c-31.73,0.32-63.46,0.37-95.19,0.11
		c-6.4-0.05-8.27,1.89-7.96,7.89c0.47,8.88-0.07,17.8,0.13,26.69c0.1,4.47-0.16,7.54-6.31,7.28c-5.17-0.22-8.32-0.71-8-6.93
		c0.5-9.54-0.03-19.12,0.28-28.67c0.14-4.63-1.28-6.38-6.33-6.35c-32.41,0.22-64.83,0.29-97.24,0.1c-5.24-0.03-6.27,1.87-6.14,6.33
		c0.24,9.22-0.15,18.46,0.09,27.69c0.13,4.94-0.41,7.74-6.91,7.92c-7.15,0.2-7.56-3.01-7.38-8.3c0.32-8.89-0.07-17.8,0.21-26.7
		c0.15-4.75-0.73-7.09-6.6-7.03c-32.41,0.29-64.83,0.31-97.24,0.08c-5.82-0.04-6.77,2.18-6.61,7.01c0.3,9.55-0.18,19.13,0.16,28.67
		c0.17,4.88-1.64,6.36-6.47,6.11c-4.35-0.23-8.05,0.07-7.76-6.06c0.45-9.54,0-19.12,0.24-28.67c0.12-4.64-0.62-7.17-6.55-7.12
		c-32.41,0.26-64.83,0.2-97.24,0.04c-5.03-0.03-6.51,1.89-6.42,6.43c0.18,9.56-0.29,19.13,0.1,28.67c0.21,5.22-1.47,6.9-6.9,6.75
		c-4.99-0.13-7.44-1.05-7.18-6.57c0.45-9.54-0.11-19.13,0.3-28.67c0.22-5.3-1.75-6.66-7.02-6.63c-32.41,0.2-64.83,0.18-97.24,0.01
		c-4.51-0.02-5.94,1.38-5.86,5.6c0.19,9.89-0.25,19.79,0.13,29.66c0.21,5.4-1.91,6.65-7.11,6.57c-5.04-0.08-7.43-1.11-7.19-6.59
		c0.42-9.54-0.12-19.13,0.28-28.67c0.22-5.35-1.9-6.64-7.1-6.6c-31.73,0.23-63.46,0.32-95.19,0.08c-6.36-0.05-8.29,1.97-8.02,7.93
		c0.43,9.21-0.16,18.46,0.15,27.68c0.16,4.77-1.43,6.35-6.38,6.13c-4.52-0.2-7.93-0.15-7.64-6.13c0.44-9.21-0.12-18.47,0.31-27.68
		c0.26-5.84-1.41-8.1-7.94-8.04c-31.39,0.31-62.78,0.4-94.17-0.01c-7.29-0.1-8.48,2.59-8.22,8.59c0.39,8.88-0.25,17.81,0.14,26.69
		c0.24,5.45-2.05,6.55-7.15,6.6c-5.23,0.05-7.24-1.29-7-6.62c0.42-9.54-0.11-19.13,0.26-28.67c0.21-5.24-1.62-6.64-6.97-6.59
		c-32.07,0.27-64.15,0.34-96.22,0.09c-5.97-0.05-7.46,1.8-7.21,7.25c0.42,9.54-0.22,19.13,0.19,28.67c0.22,5.24-2.19,5.93-6.67,5.81
		c-4.46-0.11-8-0.03-7.72-6.08c0.44-9.54-0.02-19.12,0.25-28.67c0.13-4.75-0.83-7.1-6.65-7.05c-32.07,0.28-64.15,0.28-96.22,0.11
		c-5.44-0.03-7.08,1.83-6.93,6.87c0.29,9.22-0.31,18.47,0.14,27.68c0.28,5.76-1.87,7.18-7.57,7.25c-5.69,0.07-6.91-1.98-6.73-6.91
		c0.34-9.22-0.18-18.47,0.26-27.68c0.28-5.54-1.43-8.1-7.35-7.16c-6.04,0.95-8.4-0.98-8.36-7.38c0.03-6.51,3.44-6.61,8.34-6.58
		c20.47,0.14,40.95-0.2,61.42,0.26c6.87,0.15,8.67-1.9,8.36-8.3c-0.53-11.18-0.87-22.47,0.12-33.6c0.86-9.67-3.28-11.36-12.05-11.11
		c-19.09,0.54-38.21,0.06-57.32,0.25c-5.33,0.05-8.98,0.04-8.96-7.01c0.02-6.57,2.81-8.21,8.56-7.36
		c7.93,1.17,10.64-1.67,10.13-9.57c-0.73-11.49-0.62-23.09-0.03-34.6c0.37-7.04-2.09-9.5-9.16-8.64c-5.56,0.67-9.7,0.16-9.5-7.48
		c0.2-7.86,5.21-6.11,9.68-6.12c20.47-0.06,40.95-0.26,61.42,0.04c6.33,0.09,8.26-1.96,8.08-7.95c-0.4-12.85-0.38-25.72-0.01-38.56
		c0.15-5.41-2.03-6.51-7.11-6.45c-21.15,0.24-42.31-0.04-63.46,0.21c-5.77,0.07-8.62-0.85-8.51-7.45c0.1-6.3,3.17-7.4,8.2-6.62
		c8.39,1.29,10.47-2.25,10.05-9.87c-0.63-11.51-0.64-23.09-0.01-34.6c0.39-7.04-1.85-9.31-9.05-8.74c-3.19,0.25-8.97,2.85-9-4.21
		c-0.03-6.95,5.52-4.42,8.96-4.46c21.15-0.2,42.31-0.32,63.46-0.01c6.05,0.09,8.53-1.25,8.3-7.59c-0.46-12.84-0.41-25.72,0.01-38.56
		c0.19-5.9-2.26-7.07-7.75-7.01c-21.5,0.26-43,0.2-64.48,0.05c-3.25-0.02-8.2,1.89-8.41-4.18c-0.19-6.13,4.74-4.82,8.01-4.39
		c8.41,1.1,10.36-2.39,9.95-9.92c-0.62-11.51-0.42-23.08-0.03-34.6c0.19-5.94-0.76-9.32-8.17-8.69c-3.57,0.3-10.11,2.93-9.7-4.59
		c0.39-7.2,6.75-4.07,10.37-4.13c20.12-0.31,40.26-0.41,60.39,0.07c7.27,0.17,10.37-1.15,9.88-9.02
		c-0.75-12.15-0.5-24.39-0.08-36.58c0.2-6.04-1.72-7.9-8.09-7.78c-21.49,0.39-42.99,0.19-64.48,0.15c-3.86-0.01-8.29,1.25-8.31-5.39
		c-0.02-6.41,4-6.07,8.09-5.51c6.79,0.93,7.9-2.11,7.69-7.88c-0.43-12.18-0.43-24.4,0-36.58c0.21-6.14-1.16-9.48-8.29-8.46
		c-4.86,0.7-7.58-0.7-7.4-6.34c0.18-5.78,3.94-5.13,7.67-5.13c20.82-0.02,41.63-0.25,62.43,0.13c6.4,0.12,8.17-1.71,7.91-7.8
		c-0.5-11.85-0.52-23.75,0.05-35.59c0.34-7.09-1.44-9.77-9.43-9.54c-19.78,0.58-39.57,0.17-59.37,0.19
		c-4.74,0.01-9.41,1.16-9.44-6.45c-0.03-6.78,3.11-7.99,8.66-7.17c7.61,1.12,10.07-1.59,9.62-9.14
		c-0.83-11.79-0.73-23.71-0.12-35.55c0.35-6.73-2.05-8.78-8.61-8.14c-5.22,0.51-9.92,0.79-9.65-7.2c0.25-7.69,4.97-6.32,9.6-6.32
		c19.79-0.01,39.59-0.41,59.37,0.18c8.05,0.24,9.73-2.48,9.37-9.56c-0.58-11.51-0.55-23.09-0.03-34.6c0.31-6.77-1.56-9.09-8.98-8.91
		c-20.12,0.51-40.25,0.25-60.39,0.1c-3.6-0.03-8.4,1.84-8.78-4.95c-0.4-6.93,3.95-6.66,8.44-6.16c6.09,0.68,7.37-1.94,7.22-7.3
		c-0.36-12.85-0.41-25.72,0.03-38.56c0.18-5.49-1.1-7.93-7.18-7.35c-3.78,0.36-8.42,1.57-8.51-5.08c-0.1-7.36,5.1-5.52,9.17-5.54
		c21.83-0.1,43.68-0.3,65.51,0.05c6.78,0.11,8.77-2.02,8.54-8.43c-0.47-12.51-0.44-25.06,0.02-37.57c0.21-5.67-1.51-7.19-7.33-7.1
		c-22.17,0.34-44.36,0.18-66.53,0.17c-4.63,0-9.3,1.21-9.48-6.45c-0.18-7.91,4.24-7.88,9.61-7.18c6.95,0.91,8.76-1.87,8.51-8.26
		c-0.48-11.85-0.61-23.76,0.04-35.59c0.41-7.35-1.64-10.28-9.53-9.3c-3.45,0.43-8.32,2.15-8.53-4.84c-0.2-7.08,4.28-6.08,8.66-6.08
		c20.47,0.01,40.96-0.39,61.42,0.24c8.04,0.25,9.76-2.28,9.39-9.45c-0.61-11.84-0.55-23.74,0-35.59c0.32-6.7-2.13-8.34-8.71-8.22
		c-20.47,0.36-40.95,0.2-61.42,0.01c-3.52-0.03-8.6,2.33-9.28-4.36c-0.64-6.24,2.73-7.32,7.97-6.77c4.38,0.46,4.91-2.13,4.88-5.54
		c-0.1-13.52-0.2-27.03,0.02-40.55c0.08-4.88-1.16-7.31-6.81-7c-8.13,0.44-6.79-4.11-4.42-8.86c22.79,0.07,45.58,0.07,68.37,0.28
		c4.4,0.04,6.89-0.48,6.75-5.76c-0.37-13.8-0.15-27.61-0.11-41.42C54.54,190.2,54.5,186.8,49.05,188.63z M1214.01,444.96
		c-6.83,0-13.65,0.01-20.47,0.01c-1.51-0.31-2.29,0.13-1.94,1.74c0.01,2.64,0.03,5.27,0.04,7.91c-0.93,6.6-0.93,13.2,0,19.8
		c-0.01,6.59-0.03,13.17-0.04,19.76c-0.62,3.94,2.41,3.17,4.58,3.17c33.04,0.04,66.08-0.01,99.12,0.1c4.27,0.01,6.11-1.22,6.05-5.64
		c-0.2-14.15-0.15-28.3-0.02-42.45c0.04-3.95-1.37-5.55-5.44-4.41c-6.82,0-13.63,0.01-20.45,0.01c-6.84,0-13.66,0-20.5,0
		c-6.82,0-13.63,0-20.45,0C1227.69,444.96,1220.85,444.96,1214.01,444.96z M1275.45,895.73c-6.82-0.97-13.64-0.98-20.47,0
		c-5.86-1.31-4.92,2.86-4.94,5.93c-0.06,13.42,0.19,26.85-0.05,40.26c-0.09,4.71,1.59,6.36,6.38,6.22
		c13.18-0.4,26.37-0.53,39.55-0.77c6.83,1.01,13.65,1.04,20.48,0.01c12.84,0.23,25.69,0.4,38.52,0.74c3.99,0.11,5.32-1.57,5.22-5.25
		c-0.32-11.09-0.44-22.19-0.64-33.29c0.8-3.96,1.03-7.91-0.04-11.86c0.33-1.69-0.39-2.35-2.12-2.01
		c-6.83-0.95-13.64-0.95-20.46,0.02c-6.83-0.94-13.65-0.94-20.48,0c-6.83-0.98-13.64-0.98-20.47,0
		C1289.1,894.79,1282.28,894.79,1275.45,895.73z M179.46,1245.84c0.84-6.58,0.86-13.17-0.01-19.75c1.62-5.23-0.44-7.03-5.99-7.01
		c-32.35,0.12-64.71,0.13-97.06-0.13c-5.67-0.05-6.86,2.1-6.71,6.98c0.31,9.86,0.09,19.74,0.09,29.61c0,17.14,0,17.14,18.21,15.81
		c6.82,0.01,13.63,0.02,20.45,0.02c6.84-0.01,13.66-0.02,20.5-0.02c6.82,0,13.63,0.01,20.45,0.01c2,0.15,3.98,0.43,5.98,0.45
		C181.6,1272.06,181.6,1272.05,179.46,1245.84z M1234.49,65.05c-6.82-0.8-13.64-0.8-20.46,0c-7.81-0.17-15.63-0.19-23.42-0.59
		c-4.47-0.23-5.87,1.36-5.8,5.65c0.22,13.81,0.18,27.62,0.01,41.43c-0.05,4.14,1.26,5.86,5.81,5.84
		c32.67-0.15,65.34-0.17,98.01-0.05c4.82,0.02,6.62-1.47,6.49-6.23c-0.28-9.53-0.02-19.07-0.04-28.6
		c-0.05-18.89-0.07-18.89-19.64-17.44c-6.82-0.8-13.64-0.81-20.46,0C1248.15,65.05,1241.33,65.05,1234.49,65.05z M1112.15,1186.54
		c1.03-6.61,1.02-13.22,0-19.83c1.73-14.68,1.73-14.71-12.94-14.56c-2.67,0.03-5.34,0.39-8.02,0.59c-6.83-1.03-13.65-1.03-20.48,0
		c-6.83-1-13.65-1-20.47,0c-6.83-1.03-13.65-1.03-20.48,0c-27.25-2.66-27.25-2.66-27.25,23.36c0,1.64,0,3.28,0,4.92
		c-0.06,25.7-0.06,25.7,27.26,23.32c6.82,0.93,13.64,0.93,20.46,0c6.83,0.9,13.66,0.9,20.49,0c6.82,0.93,13.64,0.93,20.46,0
		C1116.85,1205.27,1113.3,1208.01,1112.15,1186.54z M674.07,78.83c-1.29-4.89,6.4-13.85-5.16-14.06
		c-32.7-0.58-65.44-0.14-98.16-0.36c-5.16-0.04-6.25,1.82-6.16,6.32c0.23,13.5,0.24,27-0.01,40.5c-0.09,4.76,1.63,6.21,6.49,6.18
		c32.72-0.19,65.44-0.11,98.16-0.22c1.93-0.01,5.28,1.31,4.8-2.85C675.22,102.5,675.3,90.67,674.07,78.83z M876.17,5.62
		c0.02,1.31,0.03,2.63,0.04,3.94c-0.93,3.3-0.99,6.59,0.06,9.88c-0.94,6.6-0.94,13.2,0,19.8c0.04,5.32-3.25,11.04,1.99,15.74
		c34.8,0.62,69.62,0.86,104.42-0.12c1.5,0.27,2.46-0.01,1.94-1.79c0.98-15.83,0.96-31.65,0.02-47.48c0.34-1.58-0.16-2.4-1.98-2.02
		c-34.79-1.27-69.6-1-104.39-0.12C876.39,3.1,875.72,3.85,876.17,5.62z M255.68,53.07c-0.35,1.83,0.65,2.18,2.23,1.9
		c34.81,0.63,69.63,0.91,104.43-0.14c1.53,0.33,2.52,0.06,2.15-1.77c1.22-15.82,1.26-31.63-0.03-47.45c0.4-1.77-0.3-2.48-2.15-2.06
		c-34.79-1.24-69.59-0.97-104.39-0.12c-1.91-0.38-2.56,0.45-2.27,2.19C254.83,21.45,254.8,37.26,255.68,53.07z M185.31,822.09
		c0,0.02,0,0.03,0,0.05c16.34,0,32.69-0.25,49.03,0.13c5.91,0.14,7.51-1.65,7.35-7.2c-0.4-13.15-0.28-26.31-0.05-39.47
		c0.07-4.4-0.8-6.49-6.07-6.46c-32.68,0.19-65.37,0.16-98.05-0.02c-4.93-0.03-6.38,1.5-6.27,6.22c0.32,13.15,0.56,26.33-0.08,39.46
		c-0.33,6.67,2.37,7.52,8.19,7.4C154.67,821.87,169.99,822.09,185.31,822.09z M186.35,508.09c0,0.02,0,0.04,0,0.06
		c-16.02,0-32.03,0.15-48.04-0.09c-5.03-0.08-7.4,0.96-7.26,6.44c0.33,13.82,0.29,27.66-0.01,41.48c-0.1,4.69,2.02,5.33,6.08,5.32
		c32.72-0.13,65.42-0.2,98.14-0.03c5.07,0.03,6.33-1.69,6.24-6.27c-0.25-13.16-0.48-26.35,0.06-39.5c0.26-6.43-2.16-7.67-8.17-7.53
		C217.7,508.33,202.02,508.09,186.35,508.09z M806.34,822.09c0,0.02,0,0.04,0,0.06c16.03,0,32.06-0.14,48.09,0.08
		c4.88,0.07,7.53-0.62,7.38-6.3c-0.37-13.5-0.28-27.02-0.02-40.52c0.09-4.7-1.53-6.26-6.42-6.24c-32.4,0.14-64.8,0.17-97.2-0.08
		c-5.56-0.04-6.94,1.87-6.84,6.86c0.28,13.17,0.32,26.36-0.01,39.54c-0.13,5.18,1.56,6.81,6.95,6.71
		C774.28,821.89,790.32,822.09,806.34,822.09z M807.59,691.56c0-0.01,0-0.03,0-0.04c16.33,0,32.66-0.24,48.99,0.13
		c5.78,0.13,7.72-1.4,7.55-7.11c-0.39-13.14-0.25-26.3-0.03-39.44c0.07-4.44-0.95-6.49-6.14-6.47c-32.66,0.16-65.32,0.13-97.98-0.05
		c-4.84-0.03-6.5,1.41-6.4,6.18c0.29,13.47,0.36,26.96-0.03,40.43c-0.15,5.46,1.97,6.57,7.1,6.48
		C776.28,691.38,791.94,691.56,807.59,691.56z M867.7,240.89c0,0.02,0,0.03,0,0.05c16.04,0,32.06-0.15,48.09,0.09
		c5.06,0.08,7.26-0.97,7.08-6.49c-0.43-13.17-0.42-26.37,0-39.54c0.18-5.9-2.17-7.1-7.72-7.07c-31.72,0.19-63.44,0.18-95.16-0.08
		c-5.74-0.05-7.76,1.46-7.59,7.18c0.39,12.84,0.5,25.72-0.04,38.55c-0.28,6.5,2.36,7.56,8.28,7.42
		C836.31,240.65,852.01,240.89,867.7,240.89z M809.69,1018.67c0,0.01,0,0.03,0,0.04c-16.34,0-32.68,0.17-49.03-0.1
		c-5.22-0.09-7.2,1.29-7.07,6.62c0.34,13.48,0.25,26.97-0.02,40.45c-0.1,4.83,1.75,6.15,6.52,6.12c32.34-0.17,64.69-0.22,97.02-0.03
		c5.36,0.03,7.15-1.55,7.04-6.72c-0.3-13.15-0.4-26.32,0.03-39.47c0.18-5.77-1.92-7.14-7.52-7.03
		C841.01,1018.88,825.35,1018.67,809.69,1018.67z M126.88,1009.8c0-0.01,0-0.03,0-0.04c16.04,0,32.07-0.24,48.11,0.13
		c5.85,0.13,7.62-1.57,7.46-7.21c-0.4-13.17-0.37-26.37,0-39.55c0.15-5.39-1.93-6.54-7.08-6.5c-31.73,0.22-63.46,0.28-95.19,0.03
		c-6.16-0.05-8.36,1.48-8.13,7.69c0.47,12.51,0.54,25.06-0.02,37.57c-0.31,6.84,2.35,8.21,8.81,8.03
		C96.17,1009.51,111.53,1009.8,126.88,1009.8z M1115.81,188.04c0-0.01,0-0.03,0-0.04c-16,0-31.99,0.24-47.98-0.13
		c-5.94-0.14-7.55,1.76-7.4,7.3c0.38,13.14,0.26,26.3,0.04,39.45c-0.08,4.44,0.91,6.42,6.11,6.39c32.66-0.19,65.34-0.17,98,0.02
		c4.89,0.03,6.45-1.35,6.34-6.11c-0.3-13.47-0.35-26.96,0.01-40.44c0.14-5.42-2.03-6.62-7.15-6.54
		C1147.8,188.2,1131.8,188.04,1115.81,188.04z M560.81,1018.66c0,0.02,0,0.04,0,0.06c-15.68,0-31.36,0.25-47.03-0.12
		c-6.09-0.15-8.46,1.3-8.21,7.62c0.5,12.82,0.44,25.68,0.05,38.51c-0.18,5.8,2,7.16,7.65,7.11c31.35-0.26,62.7-0.31,94.05-0.05
		c6.5,0.05,9.02-1.35,8.69-8.17c-0.61-12.48-0.59-25.03-0.01-37.52c0.31-6.48-2.24-7.67-8.17-7.55
		C592.17,1018.88,576.49,1018.66,560.81,1018.66z M1181.17,638.72c-15.99,0-31.98,0.24-47.96-0.13c-5.88-0.13-7.59,1.64-7.42,7.24
		c0.4,13.13,0.25,26.29,0.07,39.43c-0.06,4.37,0.84,6.47,6.14,6.43c32.65-0.25,65.31-0.25,97.96-0.11c4.91,0.02,6.51-1.52,6.43-6.2
		c-0.23-12.81-0.41-25.64,0.07-38.44c0.23-6.31-1.43-8.62-8.36-8.4C1212.47,639.04,1196.81,638.7,1181.17,638.72z M1119.99,1009.77
		c16,0,31.99-0.16,47.98,0.09c5.09,0.08,7.3-1.04,7.14-6.5c-0.38-13.47-0.28-26.96-0.04-40.44c0.08-4.66-1.53-6.31-6.43-6.28
		c-32.33,0.16-64.66,0.24-96.98-0.02c-6.29-0.05-7.18,2.54-7.08,7.66c0.28,12.82,0.36,25.65-0.03,38.46
		c-0.16,5.6,1.61,7.29,7.46,7.15C1088,1009.51,1104,1009.76,1119.99,1009.77z M806.66,561.22c0-0.01,0-0.03,0-0.04
		c16.01,0,32.02-0.16,48.03,0.1c5.09,0.08,7.26-1,7.11-6.47c-0.38-13.48-0.39-26.99,0.04-40.47c0.18-5.7-2.44-6.35-7.28-6.32
		c-32.01,0.16-64.03,0.21-96.05,0.03c-5.22-0.03-7.31,1.32-7.2,6.59c0.26,13.49,0.36,26.99-0.06,40.47
		c-0.18,5.81,2.68,6.24,7.4,6.18C774.64,561.11,790.65,561.22,806.66,561.22z M871.96,1009.75c16.03,0,32.04-0.2,48.06,0.11
		c5.42,0.1,7.09-1.6,6.97-6.75c-0.31-13.17-0.26-26.35,0-39.52c0.1-4.93-1.2-7.01-6.81-6.97c-32.38,0.23-64.77,0.21-97.15,0.07
		c-4.9-0.02-6.49,1.59-6.41,6.27c0.24,13.17,0.46,26.36-0.08,39.51c-0.26,6.57,2.51,7.54,8.36,7.41
		C840.59,1009.55,856.28,1009.77,871.96,1009.75z M560,430.81c0,0.02,0,0.04,0,0.06c16.35,0,32.7-0.1,49.05,0.07
		c4.51,0.05,6.88-0.81,6.78-5.91c-0.26-13.82-0.15-27.64,0.04-41.46c0.06-4.24-1.51-5.8-5.94-5.78c-32.7,0.13-65.4,0.18-98.1,0.03
		c-5.03-0.02-6.43,1.77-6.35,6.35c0.23,13.16,0.33,26.33-0.01,39.49c-0.14,5.58,1.67,7.41,7.53,7.28
		C528.66,430.58,544.33,430.81,560,430.81z M680.65,126.44c0-0.03,0-0.05,0-0.08c-16.37,0-32.75,0.09-49.12-0.06
		c-4.31-0.04-7.06,0.34-6.94,5.69c0.32,13.83,0.18,27.68,0.03,41.52c-0.05,4.13,1.31,5.87,5.87,5.86
		c32.75-0.12,65.49-0.12,98.24,0.04c4.95,0.02,6.5-1.67,6.41-6.33c-0.24-13.18-0.36-26.37,0.04-39.54c0.17-5.63-1.62-7.36-7.46-7.22
		C712.03,126.68,696.34,126.44,680.65,126.44z M747.95,1009.83c0-0.02,0-0.05,0-0.07c16.02,0,32.03-0.21,48.04,0.11
		c5.45,0.11,7.02-1.64,6.9-6.74c-0.31-13.16-0.25-26.34-0.02-39.5c0.08-4.73-0.76-7.06-6.58-7.01c-32.37,0.27-64.74,0.25-97.11,0.06
		c-5.39-0.03-7.03,1.66-6.91,6.79c0.32,13.16,0.42,26.34-0.02,39.5c-0.19,5.9,2.15,7.07,7.65,6.97
		C715.92,1009.64,731.95,1009.83,747.95,1009.83z M928.59,126.44c0-0.02,0-0.05,0-0.07c-16.34,0-32.68,0.19-49.03-0.11
		c-5.34-0.1-7.06,1.41-6.93,6.65c0.35,13.15,0.31,26.32,0,39.47c-0.11,4.91,0.99,7.06,6.66,7.02c32.34-0.2,64.69-0.18,97.03,0.05
		c5.39,0.04,7.02-1.59,6.89-6.74c-0.33-12.82-0.52-25.67,0.09-38.48c0.34-6.92-2.45-8.08-8.75-7.91
		C959.24,126.71,943.92,126.44,928.59,126.44z M1052.15,179.28c0,0.03,0,0.05,0,0.08c16.03,0,32.06-0.15,48.09,0.09
		c5.16,0.08,7.32-1.25,7.18-6.65c-0.35-13.17-0.41-26.37,0.02-39.54c0.19-6.01-2.31-6.97-7.79-6.93
		c-31.72,0.2-63.44,0.18-95.16-0.05c-5.56-0.04-7.9,1.18-7.7,7.06c0.42,12.84,0.49,25.71-0.01,38.55c-0.25,6.44,2.34,7.65,8.31,7.52
		C1020.76,179.04,1036.46,179.28,1052.15,179.28z M251.37,1009.8c0-0.01,0-0.03,0-0.04c16.04,0,32.07-0.13,48.1,0.08
		c4.93,0.06,7.51-0.79,7.35-6.42c-0.38-13.51-0.3-27.03-0.06-40.54c0.08-4.75-1.65-6.27-6.52-6.25
		c-32.41,0.18-64.82,0.25-97.23,0.03c-5.71-0.04-6.8,2.15-6.7,7c0.25,13.18,0.3,26.37-0.01,39.55c-0.12,5.17,1.56,6.8,6.97,6.69
		C219.29,1009.6,235.33,1009.8,251.37,1009.8z M1299.38,179.29c0,0.01,0,0.03,0,0.04c16.02,0,32.03-0.29,48.03,0.14
		c6.4,0.17,8.24-1.83,8.06-7.81c-0.39-12.83-0.3-25.67-0.02-38.51c0.11-5.05-1.45-6.87-6.93-6.84c-32.36,0.2-64.73,0.15-97.1-0.02
		c-4.87-0.03-6.54,1.51-6.46,6.23c0.24,13.49,0.33,27-0.03,40.48c-0.15,5.68,2.63,6.4,7.44,6.34
		C1268.04,179.18,1283.71,179.29,1299.38,179.29z M748.2,833.02c0,0.01,0,0.02,0,0.03c-16.04,0-32.07,0.31-48.09-0.15
		c-6.49-0.19-8.1,1.82-7.87,7.83c0.48,12.51,0.46,25.05,0.01,37.56c-0.2,5.84,1.07,8.05,7.72,7.98c31.72-0.32,63.44-0.22,95.17,0.01
		c5.39,0.04,7.97-0.82,7.76-6.85c-0.45-13.17-0.43-26.37,0.01-39.54c0.19-5.89-2.1-7.09-7.64-6.98
		C779.59,833.22,763.89,833.02,748.2,833.02z M247.13,240.9c0,0.01,0,0.02,0,0.03c16.33,0,32.67-0.12,49.01,0.08
		c4.53,0.06,6.78-0.69,6.64-5.83c-0.35-13.47-0.29-26.96-0.03-40.44c0.09-5-1.37-6.85-6.89-6.82c-32.33,0.21-64.67,0.19-96.99-0.07
		c-5.78-0.05-6.66,2.26-6.56,7.04c0.26,13.15,0.32,26.31-0.02,39.45c-0.13,5.15,1.41,6.79,6.86,6.68
		C215.13,240.68,231.13,240.9,247.13,240.9z M251.94,833c0,0.02,0,0.03,0,0.05c-16.33,0-32.66,0.14-48.99-0.09
		c-4.68-0.06-6.74,1.02-6.64,5.96c0.26,13.8,0.29,27.61-0.01,41.41c-0.11,5.18,2.44,5.84,6.86,5.83c32.32-0.09,64.64-0.13,96.96,0.1
		c5.74,0.04,6.75-2.33,6.66-7.12c-0.23-12.81-0.36-25.64,0.04-38.45c0.18-5.9-1.46-8.04-7.93-7.85
		C283.25,833.31,267.59,833,251.94,833z M495.63,188.02c0-0.02,0-0.04,0-0.06c-16.02,0-32.03,0.16-48.04-0.09
		c-5.13-0.08-7.29,1.11-7.14,6.56c0.37,13.49,0.32,26.99,0.02,40.48c-0.1,4.89,1.77,6.08,6.52,6.06c32.37-0.15,64.74-0.12,97.1,0.03
		c4.61,0.02,6.71-0.89,6.58-5.94c-0.34-13.49-0.34-26.99-0.01-40.48c0.12-5.23-1.65-6.77-7-6.67
		C527.67,188.22,511.65,188.02,495.63,188.02z M497.95,366.84c0,0.02,0,0.04,0,0.06c16.01,0,32.01-0.16,48.02,0.09
		c5.03,0.08,7.37-0.87,7.21-6.41c-0.37-13.48-0.35-26.98,0.04-40.46c0.16-5.67-2.52-6.34-7.37-6.32c-32.01,0.13-64.02,0.2-96.03-0.1
		c-6.15-0.06-7.34,2.15-7.19,7.46c0.34,12.82,0.37,25.67-0.02,38.49c-0.16,5.5,1.39,7.44,7.33,7.3
		C465.94,366.61,481.94,366.84,497.95,366.84z M184.09,179.29c0,0.01,0,0.02,0,0.03c15.7,0,31.39-0.16,47.08,0.09
		c5.3,0.09,8.16-0.59,7.94-6.82c-0.48-13.17-0.39-26.37-0.05-39.55c0.13-5.25-1.69-6.74-7-6.71c-32.41,0.18-64.83,0.16-97.25-0.04
		c-5.02-0.03-6.38,1.62-6.29,6.26c0.25,13.18,0.33,26.38-0.06,39.56c-0.16,5.62,1.64,7.43,7.52,7.31
		C152.02,179.06,168.06,179.29,184.09,179.29z M308.05,126.38c-16,0-31.99,0.18-47.98-0.1c-5.43-0.1-7.98,0.85-7.76,6.91
		c0.47,13.14,0.36,26.3,0.04,39.45c-0.12,5.12,1.46,6.79,6.91,6.76c32.33-0.2,64.66-0.19,96.98,0.09c5.81,0.05,6.69-2.28,6.6-7.02
		c-0.24-12.82-0.4-25.65,0.04-38.46c0.2-5.94-1.39-7.96-7.88-7.76C339.36,126.73,323.7,126.4,308.05,126.38z M431.96,179.3
		c15.66,0,31.32-0.33,46.96,0.16c6.54,0.21,8.22-2.03,8.09-7.86c-0.3-12.82-0.26-25.65,0.04-38.47c0.12-5.07-1.44-6.85-6.91-6.82
		c-32.33,0.2-64.67,0.2-96.99-0.06c-5.94-0.05-6.51,2.57-6.44,7.16c0.2,12.82,0.42,25.66-0.08,38.46c-0.25,6.47,2.5,7.62,8.36,7.51
		C400.64,179.09,416.3,179.29,431.96,179.3z M436.01,430.81c0,0.02,0,0.04,0,0.06c16,0,32-0.18,48,0.1c5.4,0.1,8-0.83,7.78-6.87
		c-0.46-13.14-0.35-26.31-0.08-39.46c0.1-4.86-0.94-6.95-6.63-6.91c-32.34,0.26-64.68,0.25-97.01,0.03c-5.48-0.04-7.03,1.7-6.9,6.79
		c0.33,12.49,0.52,25.01,0.01,37.48c-0.28,6.71,1.44,9.22,8.88,8.95C405.36,430.41,420.69,430.81,436.01,430.81z M1053.27,561.22
		c0-0.01,0-0.03,0-0.04c16.33,0,32.67-0.22,49.01,0.12c5.76,0.12,7.66-1.46,7.49-7.15c-0.4-13.14-0.37-26.31,0.05-39.45
		c0.17-5.3-1.56-6.74-6.88-6.7c-31.99,0.21-63.98,0.23-95.97,0.03c-5.65-0.04-7.81,1.42-7.65,7.17c0.38,13.14,0.37,26.31,0,39.45
		c-0.15,5.3,1.73,6.75,6.99,6.66C1021.96,561.05,1037.62,561.22,1053.27,561.22z M808.95,377.82c0,0.02,0,0.04,0,0.07
		c-16.04,0-32.07,0.23-48.1-0.12c-5.93-0.13-7.59,1.8-7.43,7.35c0.37,12.84,0.38,25.71,0,38.56c-0.16,5.6,1.61,7.31,7.46,7.26
		c32.06-0.23,64.14-0.19,96.2,0.04c5.45,0.04,7.05-1.7,6.93-6.82c-0.31-12.85-0.38-25.71,0.03-38.56c0.18-5.97-1.6-8.08-8.01-7.91
		C840.35,378.09,824.65,377.82,808.95,377.82z M308.08,302.7c0,0.02,0,0.04,0,0.06c15.67,0,31.34-0.19,47,0.11
		c5.32,0.1,8.07-0.54,7.83-6.74c-0.49-13.15-0.46-26.33-0.02-39.48c0.19-5.9-2.16-7.13-7.68-7.1c-32.01,0.18-64.03,0.19-96.05-0.05
		c-5.55-0.04-6.94,1.87-6.82,6.88c0.3,12.83,0.53,25.68-0.07,38.49c-0.33,6.95,2.49,8.1,8.8,7.95
		C276.74,302.45,292.42,302.7,308.08,302.7z M1056.38,430.86c16.02,0,32.03-0.24,48.04,0.13c5.87,0.13,7.61-1.63,7.44-7.22
		c-0.39-12.83-0.34-25.68-0.03-38.51c0.12-5.21-0.86-7.58-7.11-7.53c-32.02,0.29-64.05,0.22-96.08,0.02
		c-5.3-0.03-7.19,1.52-7.08,6.72c0.28,12.5,0.43,25.03-0.11,37.52c-0.3,6.76,1.58,9.25,8.96,9
		C1025.7,430.48,1041.04,430.84,1056.38,430.86z M1181.3,430.87c16.02,0,32.03-0.1,48.05,0.07c4.53,0.05,6.89-0.88,6.79-5.95
		c-0.28-13.82-0.21-27.65-0.01-41.48c0.06-4.33-1.6-5.72-5.96-5.7c-32.72,0.12-65.43,0.15-98.14-0.01
		c-5.07-0.03-6.36,1.81-6.28,6.39c0.25,13.16,0.37,26.34-0.02,39.5c-0.16,5.65,1.77,7.39,7.52,7.28
		C1149.25,430.66,1165.28,430.85,1181.3,430.87z M189.35,691.58c0-0.03,0-0.06,0-0.09c15.67,0,31.34-0.2,47,0.11
		c5.6,0.11,7.81-1.31,7.63-7.09c-0.4-12.82-0.33-25.67-0.03-38.49c0.12-5.31-1.22-7.46-7.29-7.41c-32.01,0.26-64.02,0.25-96.04-0.07
		c-6.39-0.06-7.14,2.61-7.04,7.66c0.25,12.5,0.48,25.02-0.08,37.5c-0.31,6.88,2.48,8.16,8.85,8
		C158.01,691.32,173.68,691.58,189.35,691.58z M743.58,188.04c0-0.02,0-0.04,0-0.06c-16.03,0-32.05,0.15-48.07-0.09
		c-5.19-0.08-7.27,1.3-7.13,6.66c0.35,13.17,0.31,26.35,0.02,39.53c-0.1,4.97,1.18,6.96,6.79,6.92c32.39-0.21,64.78-0.16,97.18,0.01
		c4.7,0.02,6.61-1.02,6.49-5.99c-0.34-13.5-0.34-27.01-0.02-40.51c0.13-5.37-2-6.66-7.16-6.57
		C775.63,188.21,759.61,188.04,743.58,188.04z M312.15,691.53c15.67,0,31.35-0.24,47.01,0.12c6.28,0.14,9.24-0.95,8.9-7.98
		c-0.61-12.48-0.42-25.02-0.04-37.51c0.16-5.4-1.18-7.58-7.24-7.54c-32.02,0.22-64.05,0.21-96.08-0.06
		c-6.03-0.05-7.44,1.99-7.27,7.44c0.39,12.83,0.44,25.68,0.01,38.5c-0.19,5.89,2.14,7.24,7.69,7.14
		C280.81,691.38,296.48,691.55,312.15,691.53z M436.72,691.57c0-0.02,0-0.04,0-0.06c16.04,0,32.07-0.18,48.11,0.11
		c5.21,0.09,7.22-1.17,7.08-6.53c-0.36-13.18-0.43-26.38,0.01-39.55c0.2-6.02-2.35-6.96-7.77-6.92
		c-31.73,0.19-63.46,0.19-95.19-0.04c-5.66-0.04-7.79,1.36-7.61,7.14c0.41,12.84,0.46,25.72,0,38.56c-0.23,6.37,2.26,7.6,8.3,7.44
		C405.31,691.29,421.01,691.57,436.72,691.57z M59.95,302.73c16,0,31.99-0.2,47.98,0.11c5.31,0.1,7.11-1.31,6.97-6.59
		c-0.36-13.47-0.28-26.96-0.07-40.43c0.07-4.59-1.32-6.31-6.38-6.28c-32.33,0.18-64.65,0.17-96.97-0.02
		c-5.3-0.03-7.17,1.53-7.04,6.75c0.32,13.14,0.41,26.31-0.01,39.44c-0.18,5.78,1.84,7.28,7.56,7.16
		C27.95,302.54,43.95,302.75,59.95,302.73z M183.41,302.71c0,0.01,0,0.02,0,0.03c16,0,32-0.19,48,0.11c5.51,0.1,7.92-0.97,7.71-6.97
		c-0.46-13.14-0.33-26.31-0.02-39.46c0.12-5.09-1.49-6.88-6.9-6.85c-32.34,0.18-64.69,0.18-97.02-0.04
		c-5.7-0.04-6.78,2.18-6.67,7.04c0.29,12.82,0.42,25.66-0.02,38.48c-0.2,6,1.52,7.99,7.95,7.81
		C152.08,302.41,167.75,302.71,183.41,302.71z M434.02,822.12c15.99,0,31.98-0.22,47.97,0.12c5.78,0.12,7.69-1.54,7.52-7.21
		c-0.39-13.14-0.26-26.3-0.05-39.44c0.07-4.52-1.2-6.43-6.28-6.41c-32.32,0.18-64.65,0.18-96.96,0.04
		c-5.06-0.02-7.29,1.19-7.14,6.59c0.37,12.81,0.46,25.65-0.02,38.45c-0.25,6.86,2.75,8.1,9.03,7.94
		C403.39,821.84,418.7,822.09,434.02,822.12z M558.71,822.09c0,0.01,0,0.02,0,0.03c16.02,0,32.04-0.18,48.06,0.1
		c5.26,0.09,7.16-1.27,7.01-6.62c-0.39-13.16-0.32-26.35-0.04-39.51c0.1-4.96-1.19-6.98-6.8-6.94c-32.38,0.22-64.76,0.19-97.15,0.02
		c-4.87-0.03-6.51,1.45-6.42,6.17c0.25,13.17,0.47,26.36-0.08,39.51c-0.28,6.62,2.54,7.48,8.36,7.35
		C527.35,821.86,543.03,822.09,558.71,822.09z M1054.31,769.21c-15.67,0-31.35,0.28-47.01-0.14c-6.44-0.17-8.15,1.95-7.95,7.9
		c0.42,12.49,0.49,25.02-0.01,37.51c-0.24,6.24,1.95,7.77,8.12,7.72c31.68-0.24,63.36-0.22,95.05,0.09c6.1,0.06,7.45-1.99,7.29-7.41
		c-0.36-12.83-0.4-25.68,0.01-38.5c0.17-5.64-1.64-7.38-7.47-7.26C1086.34,769.46,1070.32,769.24,1054.31,769.21z M1179.66,769.24
		c0-0.01,0-0.03,0-0.04c-16.35,0-32.72,0.19-49.06-0.11c-5.34-0.1-7.14,1.46-7.01,6.68c0.33,13.16,0.43,26.34-0.02,39.49
		c-0.2,6.06,2.42,6.94,7.79,6.91c31.69-0.17,63.37-0.18,95.06,0.06c5.64,0.04,7.8-1.33,7.61-7.13c-0.43-12.82-0.49-25.68,0.01-38.5
		c0.25-6.51-2.55-7.58-8.39-7.46C1210.32,769.45,1194.99,769.24,1179.66,769.24z M127.87,833c0,0.01,0,0.03,0,0.04
		c-16,0-32,0.21-48-0.12c-5.47-0.11-8.03,0.8-7.83,6.84c0.42,13.14,0.3,26.31,0.03,39.46c-0.1,4.92,1.19,7.02,6.79,6.98
		c32.34-0.19,64.68-0.13,97.01,0.05c4.7,0.03,6.66-1.08,6.56-6c-0.29-13.81-0.29-27.63-0.01-41.44c0.1-4.91-1.8-6.01-6.55-5.93
		C159.87,833.17,143.87,833,127.87,833z M500.28,833.03c0,0.01,0,0.02,0,0.03c-16.04,0-32.07,0.17-48.1-0.09
		c-5.36-0.09-8.09,0.78-7.89,6.89c0.45,13.17,0.36,26.37,0.03,39.55c-0.12,5.2,1.65,6.8,6.99,6.77c32.06-0.16,64.14-0.18,96.2,0.12
		c6.17,0.06,7.35-2.21,7.2-7.53c-0.34-12.85-0.39-25.72,0.02-38.56c0.18-5.6-1.47-7.44-7.4-7.3
		C531.67,833.27,515.97,833.03,500.28,833.03z M1118.95,886.17c16.04,0,32.07-0.18,48.11,0.1c5.44,0.09,8.07-0.96,7.89-6.96
		c-0.4-13.18-0.31-26.37-0.03-39.55c0.1-5.03-1.37-6.89-6.88-6.86c-32.07,0.22-64.15,0.25-96.22-0.01c-6.01-0.05-7.5,1.99-7.36,7.42
		c0.35,12.52,0.43,25.06-0.03,37.57c-0.23,6.33,1.57,8.64,8.46,8.43C1088.24,885.85,1103.6,886.17,1118.95,886.17z M498.48,1009.79
		c0-0.01,0-0.02,0-0.04c16.36,0,32.74-0.16,49.09,0.09c5.12,0.08,7.29-1.11,7.15-6.55c-0.37-13.5-0.29-27.01-0.02-40.51
		c0.09-4.82-1.75-6.19-6.55-6.16c-32.39,0.18-64.78,0.25-97.17,0.04c-5.82-0.04-6.69,2.35-6.61,7.1
		c0.23,13.17,0.31,26.36-0.04,39.52c-0.14,5.34,1.86,6.69,7.1,6.6C467.11,1009.61,482.8,1009.79,498.48,1009.79z M313.02,1071.72
		c0-0.02,0-0.04,0-0.06c15.65,0,31.31-0.2,46.96,0.1c5.91,0.11,8.58-1.16,8.33-7.58c-0.5-12.8-0.42-25.65-0.02-38.46
		c0.17-5.68-1.78-7.23-7.53-7.18c-31.98,0.25-63.97,0.24-95.95,0.07c-5.08-0.03-7.28,0.97-7.13,6.45
		c0.38,13.47,0.41,26.96-0.03,40.43c-0.19,5.84,2.72,6.32,7.41,6.28C281.03,1071.63,297.02,1071.72,313.02,1071.72z M1181.28,1071.7
		c0-0.01,0-0.02,0-0.03c15.99,0,31.98-0.16,47.97,0.09c5.2,0.08,7.22-1.33,7.1-6.64c-0.32-13.47-0.25-26.95-0.01-40.42
		c0.09-4.8-1.78-6.14-6.55-6.12c-32.32,0.16-64.64,0.19-96.95,0c-5.27-0.03-7.1,1.39-6.97,6.64c0.35,13.14,0.36,26.3-0.02,39.44
		c-0.16,5.6,1.58,7.33,7.48,7.18C1149.3,1071.44,1165.29,1071.7,1181.28,1071.7z M248.96,1138.52c0-0.02,0-0.03,0-0.05
		c16,0,31.99-0.04,47.99,0.03c4.33,0.02,7.95,0.23,7.77-5.92c-0.38-13.8-0.24-27.62-0.01-41.43c0.08-4.38-1.59-5.61-5.91-5.59
		c-32.67,0.14-65.35,0.18-98.01,0.03c-4.92-0.02-6.46,1.59-6.37,6.25c0.25,13.15,0.31,26.31,0.01,39.45
		c-0.12,5.5,1.72,7.46,7.57,7.34C217.65,1138.3,233.31,1138.52,248.96,1138.52z M374.62,313.9c0-0.02,0-0.04,0-0.05
		c-16.37,0-32.75,0.1-49.12-0.06c-4.48-0.04-6.88,0.77-6.77,5.89c0.3,13.84,0.21,27.68,0.02,41.52c-0.06,4.29,1.58,5.72,5.96,5.71
		c32.75-0.1,65.49-0.11,98.24,0.07c5.01,0.03,6.37-1.73,6.29-6.36c-0.24-13.18-0.31-26.37,0.09-39.54c0.17-5.74-1.92-7.38-7.64-7.27
		C406,314.09,390.31,313.9,374.62,313.9z M622.04,366.9c15.65,0,31.31-0.22,46.95,0.11c5.98,0.13,8.57-1.3,8.33-7.6
		c-0.48-12.8-0.43-25.63-0.21-38.44c0.08-4.79-0.83-7.19-6.58-7.16c-32.32,0.18-64.64,0.13-96.96-0.04
		c-4.74-0.02-6.64,1.27-6.55,6.12c0.26,13.47,0.3,26.96-0.02,40.43c-0.12,5.27,1.82,6.74,7.07,6.65
		C590.06,366.7,606.06,366.87,622.04,366.9z M498.48,1085.62c0,0.02,0,0.04,0,0.05c-16.37,0-32.75,0.07-49.12-0.05
		c-4.25-0.03-7.06,0.25-6.93,5.65c0.34,13.83,0.24,27.68,0.03,41.52c-0.06,4.25,1.36,5.8,5.82,5.78c32.75-0.15,65.49-0.2,98.25-0.09
		c4.85,0.02,6.53-1.52,6.43-6.28c-0.28-13.18-0.37-26.37,0.04-39.54c0.17-5.65-1.6-7.31-7.44-7.17
		C529.87,1085.87,514.17,1085.62,498.48,1085.62z M870.1,366.86c0,0.01,0,0.03,0,0.04c16,0,31.99-0.11,47.98,0.07
		c4.8,0.05,7.57-0.58,7.41-6.31c-0.39-13.47-0.37-26.96,0-40.43c0.15-5.6-2.44-6.4-7.33-6.38c-31.98,0.12-63.97,0.17-95.95-0.13
		c-6.04-0.06-7.48,1.92-7.34,7.35c0.35,12.81,0.5,25.66-0.03,38.46c-0.28,6.52,2.41,7.59,8.31,7.46
		C838.79,366.63,854.45,366.86,870.1,366.86z M869.65,1085.63c0,0.02,0,0.03,0,0.05c-16.02,0-32.04,0.2-48.05-0.11
		c-5.44-0.11-7.02,1.61-6.9,6.75c0.33,13.16,0.34,26.34,0.01,39.51c-0.13,5.23,1.77,6.79,7.02,6.76c32.03-0.17,64.07-0.22,96.1,0.01
		c5.98,0.04,7.54-1.99,7.4-7.45c-0.34-12.83-0.4-25.69,0.04-38.52c0.19-5.78-1.88-7.23-7.57-7.11
		C901.69,1085.84,885.67,1085.63,869.65,1085.63z M1118.89,313.9c0-0.01,0-0.03,0-0.04c-16.37,0-32.76,0.08-49.13-0.06
		c-4.39-0.04-6.96,0.58-6.83,5.83c0.33,13.84,0.26,27.69,0.03,41.53c-0.07,4.32,1.44,5.75,5.83,5.73
		c32.76-0.09,65.51-0.09,98.27,0.08c4.98,0.03,6.46-1.79,6.39-6.4c-0.22-13.18-0.35-26.38,0.06-39.55c0.17-5.68-1.73-7.36-7.52-7.24
		C1150.28,314.12,1134.58,313.9,1118.89,313.9z M1242.29,313.9c-16.04,0-32.07,0.19-48.09-0.11c-5.26-0.1-7.2,1.25-7.07,6.56
		c0.34,13.17,0.28,26.37,0.02,39.54c-0.09,4.85,1.03,7.11,6.7,7.07c32.4-0.2,64.81-0.19,97.22,0.03c5.86,0.04,6.61-2.53,6.53-7.21
		c-0.22-12.85-0.44-25.72,0.11-38.55c0.29-6.56-2.48-7.58-8.34-7.45C1273.68,314.11,1257.98,313.9,1242.29,313.9z M1117.81,1085.63
		c0,0.01,0,0.02,0,0.03c-16.02,0-32.03,0.07-48.05-0.04c-4.19-0.03-7.11,0.19-6.98,5.61c0.35,13.82,0.25,27.65,0.09,41.48
		c-0.05,4.14,1.23,5.87,5.78,5.85c32.72-0.14,65.42-0.18,98.14-0.05c4.9,0.02,6.5-1.62,6.41-6.31c-0.24-13.16-0.35-26.34,0.06-39.5
		c0.17-5.62-1.58-7.33-7.42-7.2C1149.86,1085.86,1133.83,1085.63,1117.81,1085.63z M188.31,377.85c0,0.02,0,0.05,0,0.07
		c-16.03,0-32.05,0.17-48.07-0.09c-5.23-0.09-7.23,1.32-7.09,6.66c0.35,13.17,0.31,26.35,0.02,39.52c-0.1,4.99,1.26,6.95,6.84,6.91
		c32.39-0.2,64.77-0.15,97.16,0.04c4.93,0.03,6.46-1.54,6.37-6.22c-0.24-13.17-0.45-26.36,0.1-39.52c0.28-6.51-2.36-7.61-8.28-7.48
		C219.67,378.07,203.99,377.85,188.31,377.85z M558.11,561.22c0-0.01,0-0.03,0-0.04c16,0,31.99-0.21,47.98,0.11
		c5.57,0.11,7.82-1.18,7.64-7c-0.41-13.14-0.45-26.31,0.01-39.45c0.21-6.21-2.71-6.87-7.95-6.84c-31.65,0.17-63.3,0.24-94.95,0.01
		c-5.75-0.04-7.7,1.5-7.54,7.16c0.38,13.14,0.34,26.31,0,39.45c-0.13,5.11,1.36,6.82,6.82,6.71
		C526.12,561.01,542.12,561.22,558.11,561.22z M59.3,179.29c16.02,0,32.04-0.26,48.06,0.14c5.88,0.15,7.67-1.5,7.5-7.15
		c-0.38-12.83-0.35-25.69,0-38.52c0.14-5.38-1.24-7.51-7.27-7.47c-32.04,0.23-64.08,0.19-96.12-0.04c-5.35-0.04-7.14,1.51-7.01,6.7
		c0.31,12.84,0.52,25.7-0.06,38.52c-0.32,6.98,2.57,8.12,8.89,7.95C28.62,179.03,43.97,179.29,59.3,179.29z M559.88,691.56
		c0-0.02,0-0.04,0-0.06c16.33,0,32.65-0.17,48.98,0.1c5.3,0.08,7.17-1.52,7.05-6.73c-0.31-13.14-0.3-26.29,0.01-39.43
		c0.11-5.13-1.6-6.84-6.97-6.81c-32.32,0.17-64.63,0.13-96.94-0.03c-4.87-0.02-6.52,1.57-6.43,6.27c0.24,13.14,0.43,26.3-0.04,39.43
		c-0.23,6.52,2.58,7.53,8.44,7.4C529.27,691.33,544.58,691.56,559.88,691.56z M928.04,249.67c0-0.02,0-0.04,0-0.06
		c-16.01,0-32.02,0.21-48.02-0.11c-5.81-0.12-7.6,1.56-7.39,7.28c0.47,12.82,0.34,25.67,0.04,38.49c-0.12,5.19,0.9,7.62,7.15,7.57
		c32.35-0.27,64.71-0.19,97.07,0.01c4.96,0.03,6.41-1.56,6.32-6.21c-0.26-13.16-0.43-26.33,0.06-39.48
		c0.23-6.33-2.19-7.74-8.23-7.61C959.38,249.9,943.71,249.67,928.04,249.67z M432.05,249.7c0-0.03,0-0.05,0-0.08
		c-16.02,0-32.03,0.13-48.05-0.08c-4.9-0.06-7.52,0.71-7.35,6.38c0.4,13.49,0.29,27,0.09,40.49c-0.07,4.59,1.42,6.38,6.39,6.36
		c32.38-0.14,64.75-0.15,97.13,0.06c5.52,0.04,6.95-1.95,6.83-6.96c-0.32-12.83-0.37-25.69-0.04-38.52
		c0.14-5.81-1.33-8.06-7.96-7.83C463.41,250.06,447.73,249.7,432.05,249.7z M434.24,561.19c16.03,0,32.04-0.17,48.06,0.1
		c5.1,0.08,7.31-1,7.16-6.47c-0.37-13.49-0.37-27.01,0.01-40.5c0.16-5.74-2.65-6.31-7.43-6.29c-31.7,0.15-63.4,0.24-95.11,0.01
		c-5.73-0.04-7.9,1.63-7.81,7.16c0.2,13.17,0.23,26.35-0.06,39.52c-0.11,5.21,1.81,6.72,7.1,6.62
		C402.19,561.02,418.21,561.21,434.24,561.19z M250.77,313.9c0-0.02,0-0.04,0-0.07c-16.35,0-32.72,0.16-49.07-0.09
		c-5.27-0.08-7.14,1.44-7,6.71c0.36,13.16,0.32,26.34,0.03,39.5c-0.1,4.91,1.07,7,6.69,6.96c32.37-0.2,64.75-0.18,97.12,0.05
		c5.85,0.04,6.65-2.41,6.53-7.18c-0.33-12.83-0.64-25.69-0.09-38.51c0.28-6.54-2.32-7.62-8.21-7.5
		C281.44,314.12,266.11,313.9,250.77,313.9z M188.83,1071.72c0-0.03,0-0.05,0-0.08c16.03,0,32.06-0.2,48.08,0.11
		c5.37,0.1,7.18-1.57,7.09-6.7c-0.25-13.5-0.29-27.02,0.01-40.52c0.11-4.97-1.96-5.97-6.6-5.95c-32.4,0.17-64.79,0.19-97.19,0.04
		c-4.73-0.02-6.7,1.13-6.6,6.04c0.28,13.5,0.33,27.02-0.01,40.52c-0.13,5.37,1.99,6.7,7.14,6.62
		C156.77,1071.57,172.8,1071.72,188.83,1071.72z M1178.32,561.19c16,0,31.99-0.2,47.98,0.11c5.55,0.11,7.86-1.11,7.67-6.98
		c-0.41-13.14-0.32-26.3-0.01-39.45c0.11-5-1.23-6.94-6.78-6.9c-31.98,0.23-63.97,0.25-95.97,0.04c-5.66-0.04-7.79,1.44-7.65,7.12
		c0.35,13.14,0.44,26.31-0.05,39.45c-0.23,6.21,2.6,6.81,7.85,6.72C1147.01,561.05,1162.66,561.22,1178.32,561.19z M994.99,886.16
		c16.02,0,32.04-0.22,48.06,0.12c5.79,0.12,7.7-1.56,7.54-7.21c-0.38-13.16-0.31-26.35-0.03-39.51c0.11-5.06-1.38-6.75-6.9-6.71
		c-32.04,0.28-64.09,0.28-96.12,0.06c-5.29-0.04-7.19,1.34-7.09,6.55c0.28,13.17,0.22,26.34-0.02,39.51c-0.1,5.34,1.6,7.44,7.52,7.3
		C963.62,885.9,979.31,886.14,994.99,886.16z M1300.02,302.75c16.01,0,32.02-0.15,48.03,0.08c5.12,0.07,7.35-1.3,7.22-6.62
		c-0.31-13.16-0.23-26.33-0.1-39.49c0.05-4.63-0.87-7.14-6.68-7.1c-32.36,0.2-64.72,0.1-97.09-0.09c-4.77-0.03-6.63,1.32-6.53,6.16
		c0.26,13.49,0.3,26.99-0.01,40.48c-0.11,5.25,1.88,6.75,7.11,6.67C1268,302.58,1284.02,302.75,1300.02,302.75z M873.17,833.03
		c-16.33,0-32.66,0.05-49-0.04c-4.37-0.02-7.93-0.25-7.74,5.9c0.4,13.8,0.32,27.62,0.04,41.42c-0.1,5.12,2.33,5.87,6.8,5.86
		c32.33-0.1,64.66-0.15,96.97,0.1c5.8,0.04,6.67-2.32,6.57-7.1c-0.26-13.15-0.43-26.31,0.06-39.44c0.22-6.12-2.34-6.93-7.76-6.82
		C903.8,833.21,888.48,833,873.17,833.03z M619.27,240.89c0,0.02,0,0.04,0,0.06c16.37,0,32.74-0.13,49.11,0.08
		c4.63,0.06,6.68-0.77,6.55-5.9c-0.37-13.5-0.3-27.02,0.03-40.52c0.12-5.26-1.81-6.7-7.09-6.68c-32.05,0.18-64.11,0.15-96.16-0.06
		c-5.19-0.03-7.26,1.22-7.13,6.58c0.34,13.17,0.38,26.36-0.03,39.53c-0.18,5.84,2.07,7.13,7.67,7.01
		C587.89,240.67,603.58,240.89,619.27,240.89z M1057.33,638.7c-16.01,0-32.02,0.2-48.02-0.11c-5.57-0.11-7.85,1.1-7.62,7.04
		c0.49,12.82,0.37,25.67,0.05,38.49c-0.13,5.3,1.08,7.61,7.25,7.55c32.01-0.28,64.02-0.25,96.05-0.07c5.24,0.03,7.21-1.35,7.08-6.63
		c-0.32-13.16-0.41-26.33,0.06-39.48c0.22-6.13-2.54-6.96-7.86-6.88C1088.67,638.88,1073,638.72,1057.33,638.7z M312.5,430.81
		c0,0.02,0,0.03,0,0.05c16.01,0,32.02-0.15,48.03,0.09c5.08,0.07,7.4-1.14,7.28-6.55c-0.29-13.49-0.2-26.99,0.04-40.48
		c0.09-4.8-1.86-6.2-6.62-6.18c-32.36,0.16-64.72,0.24-97.09,0.03c-5.65-0.04-6.86,2.08-6.75,6.97c0.26,13.16,0.35,26.33,0.04,39.49
		c-0.12,5.24,1.75,6.77,7.04,6.68C280.48,430.63,296.49,430.81,312.5,430.81z M437.03,1018.67c0,0.02,0,0.03,0,0.05
		c-16.34,0-32.68,0.14-49.03-0.09c-4.67-0.06-6.68,0.99-6.58,5.95c0.28,13.81,0.25,27.63-0.06,41.44c-0.12,5.23,2.48,5.8,6.87,5.78
		c32.35-0.14,64.69-0.24,97.03-0.03c5.76,0.04,6.73-2.29,6.66-7.04c-0.22-13.15-0.31-26.32,0.02-39.47c0.12-5.14-1.51-6.81-6.9-6.7
		C469.03,1018.86,453.03,1018.67,437.03,1018.67z M998.27,497.38c0,0.01,0,0.02,0,0.04c16.01,0,32.01-0.11,48.02,0.07
		c4.46,0.05,6.89-0.54,6.77-5.79c-0.33-13.81-0.17-27.64,0.02-41.45c0.05-4.02-0.97-5.9-5.63-5.88
		c-33.03,0.16-66.06,0.16-99.09,0.04c-4.32-0.02-5.93,1.12-5.83,5.55c0.3,13.48,0.38,26.98,0.02,40.46
		c-0.15,5.81,2.1,7.18,7.73,7.07C966.26,497.17,982.27,497.38,998.27,497.38z M621.78,1085.62c0,0.02,0,0.04,0,0.05
		c-16,0-31.99,0.16-47.98-0.09c-5.08-0.08-7.33,1.04-7.17,6.5c0.37,13.14,0.39,26.3-0.01,39.44c-0.17,5.88,2.25,7.12,7.76,7.08
		c31.65-0.22,63.29-0.26,94.94-0.07c5.71,0.04,7.77-1.5,7.6-7.22c-0.39-12.81-0.52-25.65,0.04-38.45c0.29-6.52-2.37-7.5-8.23-7.37
		C653.09,1085.85,637.44,1085.62,621.78,1085.62z M680.27,249.68c0-0.02,0-0.04,0-0.06c-15.99,0-31.98,0.14-47.97-0.08
		c-5.39-0.07-7.94,1.03-7.71,7.07c0.49,13.13,0.34,26.3,0.02,39.44c-0.12,5.19,1.74,6.77,7.01,6.74
		c32.32-0.15,64.64-0.16,96.95,0.09c5.72,0.04,6.7-2.2,6.59-7.03c-0.29-12.81-0.38-25.64,0.03-38.45c0.19-5.97-1.55-8.03-7.98-7.85
		C711.58,249.97,695.92,249.68,680.27,249.68z M1056.39,1071.71c0-0.01,0-0.03,0-0.04c16,0,31.99-0.19,47.99,0.1
		c5.5,0.1,7.98-1.12,7.8-7.01c-0.39-13.14-0.32-26.31-0.02-39.45c0.11-5.11-1.54-6.76-6.94-6.73c-32.33,0.21-64.67,0.17-96.99,0.01
		c-4.66-0.02-6.58,0.85-6.44,5.94c0.39,13.8,0.37,27.62-0.07,41.42c-0.16,5.33,2.32,5.85,6.69,5.81
		C1024.4,1071.62,1040.39,1071.71,1056.39,1071.71z M932.52,691.57c0-0.02,0-0.04,0-0.06c15.35,0,30.72-0.43,46.05,0.18
		c7.95,0.31,9.86-2.37,9.53-9.58c-0.58-12.17-0.39-24.39,0.01-36.57c0.16-5.1-1.18-6.93-6.71-6.9c-32.41,0.19-64.82,0.15-97.23-0.02
		c-4.98-0.03-6.46,1.7-6.37,6.35c0.25,13.18,0.37,26.37-0.02,39.55c-0.17,5.78,1.98,7.29,7.67,7.17
		C901.13,691.36,916.83,691.57,932.52,691.57z M933.56,1071.72c0-0.01,0-0.03,0-0.04c15.68,0,31.36-0.19,47.03,0.1
		c5.66,0.1,7.79-1.38,7.58-7.22c-0.47-12.83-0.55-25.7-0.01-38.52c0.26-6.37-2.05-7.57-8.11-7.51c-31.35,0.3-62.71,0.31-94.07,0.05
		c-6.13-0.05-8.41,1.38-8.17,7.65c0.48,12.83,0.46,25.69,0.01,38.52c-0.2,5.92,2.13,7.17,7.68,7.07
		C901.51,1071.53,917.54,1071.72,933.56,1071.72z M804.08,249.67c0-0.03,0-0.06,0-0.09c-16.02,0-32.03,0.15-48.04-0.09
		c-5.13-0.08-7.25,1.16-7.09,6.59c0.4,13.49,0.32,26.99,0.09,40.48c-0.08,4.66,1.48,6.28,6.39,6.26c32.37-0.15,64.73-0.14,97.1,0.02
		c4.75,0.02,6.59-1.22,6.5-6.09c-0.28-13.49-0.29-26.99,0.06-40.48c0.13-5.21-1.59-6.81-6.97-6.71
		C836.11,249.87,820.09,249.67,804.08,249.67z M1052.33,302.71c0,0.03,0,0.06,0,0.09c16,0,32-0.15,48,0.08
		c5.16,0.07,7.25-1.31,7.11-6.65c-0.35-13.15-0.37-26.32,0.01-39.46c0.16-5.7-1.9-7.25-7.62-7.22c-32,0.22-63.99,0.19-96-0.03
		c-5.32-0.04-7.15,1.38-7.02,6.64c0.34,13.15,0.34,26.31,0,39.46c-0.14,5.58,1.68,7.35,7.53,7.22
		C1020.33,302.47,1036.34,302.71,1052.33,302.71z M749.82,497.44c0-0.02,0-0.04,0-0.06c16,0,32-0.17,48,0.1
		c5.29,0.09,7.14-1.48,7.02-6.7c-0.32-13.48-0.31-26.97,0.01-40.45c0.11-4.97-1.88-5.97-6.55-5.94
		c-32.34,0.17-64.68,0.17-97.02,0.05c-4.54-0.02-6.7,0.77-6.55,5.89c0.41,13.47,0.41,26.97,0.1,40.45
		c-0.12,5.21,1.62,6.87,6.99,6.77C717.81,497.26,733.82,497.44,749.82,497.44z M125.13,1138.53c0-0.02,0-0.04,0-0.06
		c16.02,0,32.04-0.2,48.06,0.11c5.72,0.11,7.75-1.5,7.58-7.22c-0.4-12.83-0.36-25.69,0.01-38.52c0.15-5.4-1.16-7.41-7.23-7.35
		c-31.7,0.3-63.4,0.31-95.1,0.06c-6.06-0.05-8.44,1.22-8.17,7.55c0.51,12.5,0.65,25.05-0.04,37.53c-0.4,7.16,2.72,8.12,8.88,8
		C94.45,1138.33,109.8,1138.53,125.13,1138.53z M64.7,638.73c0-0.03,0-0.05,0-0.08c-16.01,0-32.01,0.16-48.02-0.09
		c-5.21-0.08-7.25,1.33-7.11,6.65c0.34,13.15,0.41,26.33-0.01,39.47c-0.18,5.93,2.24,7.01,7.74,6.97
		c31.67-0.22,63.34-0.24,95.01,0.01c5.75,0.04,7.83-1.47,7.67-7.17c-0.36-12.49-0.47-25.01,0.04-37.5c0.25-6.33-1.34-8.65-8.33-8.43
		C96.04,639.07,80.36,638.73,64.7,638.73z M555.79,249.74c0-0.02,0-0.05,0-0.07c-16.01,0-32.01,0.16-48.01-0.09
		c-5.19-0.08-7.22,1.26-7.09,6.62c0.35,13.15,0.34,26.32-0.03,39.47c-0.16,5.63,1.77,7.21,7.54,7.17c32-0.23,64.01-0.17,96.02,0.04
		c5.19,0.03,7.15-1.23,7-6.59c-0.39-13.15-0.41-26.32,0-39.47c0.17-5.62-1.6-7.33-7.42-7.2
		C587.8,249.97,571.78,249.74,555.79,249.74z M130.11,444.45c0,0.02,0,0.04,0,0.06c-16.34,0-32.68,0.18-49.03-0.1
		c-5.31-0.09-7.1,1.42-6.96,6.66c0.35,13.15,0.29,26.32,0.01,39.47c-0.1,4.87,0.98,7.07,6.67,7.02c32.34-0.24,64.69-0.26,97.02-0.06
		c5.5,0.04,7.04-1.81,6.95-6.83c-0.26-13.15-0.41-26.32,0.03-39.47c0.19-5.98-2.29-6.97-7.72-6.86
		C161.44,444.65,145.78,444.45,130.11,444.45z M253.56,497.44c0-0.01,0-0.02,0-0.04c15.66,0,31.32-0.25,46.97,0.13
		c5.9,0.14,8.66-0.85,8.43-7.37c-0.48-13.14-0.3-26.3-0.05-39.45c0.08-4.54-1.13-6.39-6.21-6.36c-32.67,0.21-65.35,0.23-98.02,0.08
		c-4.92-0.02-6.39,1.5-6.29,6.2c0.3,13.15,0.49,26.32-0.06,39.45c-0.28,6.53,2.39,7.59,8.28,7.46
		C222.24,497.21,237.9,497.44,253.56,497.44z M1241.67,1138.46c15.7,0,31.39-0.16,47.08,0.08c5.82,0.09,8.72-1.18,8.49-7.63
		c-0.46-12.84-0.34-25.71-0.06-38.56c0.11-5.04-1.42-6.87-6.9-6.83c-32.07,0.22-64.15,0.25-96.22,0.01
		c-6.03-0.05-7.45,2.04-7.29,7.45c0.36,12.52,0.56,25.07-0.05,37.57c-0.35,7.01,2.55,8.21,8.88,8.06
		C1210.96,1138.24,1226.31,1138.48,1241.67,1138.46z M63.21,769.24c0-0.01,0-0.03,0-0.04c-15.69,0-31.38,0.23-47.05-0.11
		c-6.28-0.14-9.2,1.04-8.85,8.01c0.62,12.16,0.5,24.38,0.06,36.56c-0.21,6.14,1.08,8.68,8.27,8.59c31.37-0.37,62.74-0.22,94.11-0.02
		c5.43,0.04,8.09-0.96,7.89-6.99c-0.42-12.84-0.45-25.7,0.01-38.54c0.23-6.43-2.51-7.69-8.42-7.57
		C93.9,769.45,78.55,769.24,63.21,769.24z M1304.1,1071.66c16.36,0,32.73-0.16,49.08,0.1c5.16,0.08,7.23-1.12,7.08-6.55
		c-0.39-13.49-0.35-27-0.03-40.5c0.11-4.94-1.79-6.13-6.52-6.11c-32.38,0.14-64.76,0.13-97.14,0.02c-4.64-0.02-6.68,1.12-6.56,6.1
		c0.32,13.49,0.31,27.01-0.04,40.5c-0.14,5.35,1.88,6.67,7.11,6.58C1272.74,1071.5,1288.42,1071.69,1304.1,1071.66z M311.16,769.33
		c0-0.05,0-0.1,0-0.15c-16.33,0-32.67,0.18-49.01-0.1c-5.36-0.09-7.08,1.59-6.96,6.75c0.32,13.15,0.3,26.31-0.01,39.45
		c-0.12,5.06,1.42,6.9,6.87,6.87c31.99-0.16,63.98-0.13,95.98,0.1c5.67,0.04,7.77-1.57,7.6-7.3c-0.4-12.81-0.4-25.65,0-38.46
		c0.17-5.66-1.75-7.39-7.51-7.27C342.48,769.53,326.82,769.33,311.16,769.33z M61.34,508.1c0,0.01,0,0.03,0,0.04
		c-15.32,0-30.65,0.22-45.96-0.11c-5.99-0.13-8.49,1.27-8.23,7.6c0.5,12.81,0.48,25.66,0.06,38.47c-0.18,5.62,1.52,7.28,7.35,7.23
		c31.66-0.26,63.32-0.34,94.99,0.01c6.78,0.07,7.82-2.43,7.66-8.06c-0.37-12.49-0.49-25.01,0.02-37.49
		c0.24-6.08-1.52-7.99-7.88-7.83C93.35,508.36,77.35,508.1,61.34,508.1z M685.75,1018.67c0,0.02,0,0.03,0,0.05
		c-16.37,0-32.75,0.17-49.11-0.1c-5.34-0.09-7.06,1.51-6.92,6.73c0.35,13.17,0.49,26.37-0.06,39.53c-0.26,6.21,2.41,6.95,7.73,6.92
		c31.72-0.18,63.43-0.25,95.16-0.02c5.84,0.04,7.75-1.66,7.59-7.28c-0.36-12.51-0.48-25.05,0.02-37.56
		c0.25-6.36-1.38-8.66-8.36-8.43C716.46,1019.02,701.1,1018.67,685.75,1018.67z M311.15,508.1c0,0.02,0,0.03,0,0.05
		c-16.03,0-32.05,0.15-48.08-0.09c-5.31-0.08-8.13,0.79-7.95,6.9c0.42,13.5,0.24,27.01,0.05,40.52c-0.06,4.14,1.19,5.86,5.75,5.84
		c32.74-0.15,65.47-0.19,98.21-0.04c4.99,0.02,6.45-1.77,6.37-6.34c-0.21-12.85-0.46-25.71,0.09-38.54c0.28-6.47-1.5-8.65-8.42-8.44
		C341.85,508.43,326.5,508.1,311.15,508.1z M1303.08,769.27c0-0.01,0-0.02,0-0.04c-16.03,0-32.05,0.16-48.07-0.09
		c-5.05-0.08-7.41,0.98-7.27,6.46c0.34,13.17,0.38,26.36-0.02,39.52c-0.17,5.85,2.11,7.16,7.72,7.12
		c31.71-0.22,63.41-0.19,95.12-0.01c5.02,0.03,7.42-0.94,7.28-6.44c-0.33-13.17-0.25-26.35,0.05-39.52c0.13-5.67-2.1-7.23-7.77-7.11
		C1334.45,769.49,1318.76,769.27,1303.08,769.27z M554.99,179.32c16.37,0,32.75-0.16,49.11,0.09c5.21,0.08,7.22-1.29,7.08-6.63
		c-0.36-13.17-0.45-26.37,0.02-39.54c0.21-6.08-2.42-6.93-7.78-6.91c-31.72,0.17-63.44,0.17-95.16-0.06
		c-5.61-0.04-7.8,1.29-7.62,7.09c0.42,12.84,0.48,25.71-0.02,38.55c-0.25,6.45,2.35,7.64,8.32,7.5
		C524.28,179.05,539.64,179.29,554.99,179.32z M803.88,179.34c16,0,31.98-0.15,47.98,0.09c4.98,0.07,7.35-0.85,7.17-6.42
		c-0.41-13.47-0.29-26.96-0.06-40.43c0.08-4.64-1.42-6.25-6.38-6.23c-32.33,0.16-64.65,0.18-96.97-0.11
		c-5.78-0.05-6.7,2.17-6.61,6.95c0.24,12.82,0.38,25.65-0.06,38.46c-0.2,6.01,1.62,7.98,7.98,7.81
		C772.57,179.04,788.23,179.32,803.88,179.34z M1177.21,126.44c0-0.02,0-0.04,0-0.05c-16.34,0-32.69,0.17-49.03-0.1
		c-5.12-0.09-7.21,1.02-7.06,6.47c0.38,13.48,0.3,26.98-0.01,40.46c-0.11,4.84,1.62,6.19,6.45,6.17c32.35-0.14,64.7-0.13,97.03,0.04
		c4.71,0.02,6.72-1.11,6.61-6.05c-0.3-13.48-0.35-26.98-0.03-40.46c0.12-5.23-1.68-6.69-6.99-6.58
		C1208.54,126.64,1192.87,126.44,1177.21,126.44z M123.56,240.92c16,0,31.99-0.18,47.98,0.1c5.27,0.09,7.17-1.37,7.04-6.64
		c-0.33-13.14-0.25-26.3-0.02-39.45c0.08-4.88-1.24-7.06-6.83-7.02c-32.33,0.19-64.66,0.19-96.98-0.02
		c-5.93-0.04-6.48,2.7-6.39,7.32c0.24,12.49,0.45,25-0.08,37.47c-0.26,6.35,1.38,8.59,8.31,8.36
		C92.24,240.54,107.9,240.89,123.56,240.92z M372.5,188.04c0-0.02,0-0.04,0-0.07c-16.34,0-32.68,0.16-49.02-0.09
		c-5.26-0.08-7.19,1.44-7.07,6.69c0.32,13.15,0.25,26.31,0,39.47c-0.09,4.86,1.07,7.01,6.72,6.97c32.34-0.22,64.69-0.16,97.02,0
		c4.67,0.02,6.65-1.03,6.53-6c-0.33-13.48-0.31-26.97-0.01-40.45c0.11-5.32-2.06-6.69-7.2-6.6
		C403.82,188.2,388.16,188.04,372.5,188.04z M1239.46,188.04c0-0.01,0-0.02,0-0.03c-15.68,0-31.36,0.16-47.03-0.09
		c-5.28-0.08-8.15,0.64-7.94,6.82c0.45,13.16,0.35,26.34,0.05,39.51c-0.11,5.06,1.41,6.8,6.86,6.76
		c32.38-0.21,64.76-0.17,97.13,0.02c4.89,0.03,6.51-1.32,6.4-6.14c-0.31-13.16-0.43-26.35,0.03-39.51c0.22-6.5-2.65-7.56-8.47-7.44
		C1270.82,188.25,1255.14,188.04,1239.46,188.04z M931.52,769.26c0-0.02,0-0.04,0-0.06c-15.99,0-31.98,0.3-47.96-0.15
		c-6.42-0.18-8.14,1.81-7.95,7.78c0.42,12.8,0.3,25.63,0.03,38.44c-0.1,4.91,1.18,6.95,6.78,6.91c32.31-0.21,64.63-0.17,96.94,0.03
		c4.93,0.03,6.56-1.52,6.49-6.2c-0.21-13.14-0.41-26.3,0.06-39.43c0.23-6.52-2.68-7.55-8.48-7.44
		C962.13,769.46,946.82,769.26,931.52,769.26z M64.43,1018.67c0,0.01,0,0.03,0,0.04c-15.65,0-31.31,0.31-46.95-0.15
		c-6.44-0.19-8.08,1.79-7.88,7.77c0.45,12.81,0.29,25.64,0.03,38.45c-0.09,4.73,0.75,7.1,6.55,7.05
		c32.32-0.26,64.65-0.25,96.96-0.07c5.51,0.03,6.96-1.93,6.86-6.93c-0.28-13.14-0.44-26.31,0.06-39.44
		c0.22-6.05-2.29-6.93-7.66-6.83C96.42,1018.85,80.42,1018.67,64.43,1018.67z M930.64,508.07c0,0.02,0,0.05,0,0.07
		c-16.02,0-32.04,0.19-48.06-0.11c-5.37-0.1-7.11,1.55-6.99,6.71c0.31,13.17,0.4,26.35-0.02,39.51c-0.18,5.75,1.85,7.12,7.52,7.08
		c31.7-0.25,63.39-0.27,95.09-0.06c5.64,0.04,7.83-1.36,7.66-7.13c-0.38-13.16-0.35-26.35-0.01-39.51c0.14-5.36-1.98-6.73-7.13-6.66
		C962.67,508.22,946.66,508.07,930.64,508.07z M623.49,1009.81c0-0.02,0-0.04,0-0.06c15.67,0,31.35-0.2,47.02,0.1
		c5.83,0.11,8.69-0.97,8.45-7.48c-0.49-12.82-0.4-25.68-0.02-38.51c0.16-5.62-1.72-7.29-7.51-7.24
		c-31.69,0.25-63.37,0.23-95.06,0.06c-5.37-0.03-8.03,0.87-7.82,6.92c0.45,13.15,0.47,26.34,0.01,39.49
		c-0.21,6.2,2.68,6.88,7.93,6.8C592.14,1009.66,607.81,1009.81,623.49,1009.81z M375.87,956.73c0,0.02,0,0.04,0,0.06
		c-15.99,0-31.98,0.19-47.96-0.11c-5.56-0.1-7.9,1.22-7.71,7.06c0.41,13.13,0.35,26.29,0.08,39.43c-0.1,5.1,1.56,6.78,6.98,6.74
		c32.32-0.23,64.63-0.2,96.94-0.05c4.8,0.02,6.61-1.32,6.52-6.13c-0.24-13.47-0.26-26.95,0.06-40.42c0.12-5.17-1.61-6.79-6.96-6.69
		C407.85,956.92,391.86,956.73,375.87,956.73z M1302.3,561.18c16.02,0,32.03-0.2,48.05,0.11c5.6,0.11,7.78-1.28,7.6-7.07
		c-0.41-13.16-0.33-26.34-0.03-39.5c0.12-5.22-1.79-6.77-7.08-6.73c-32.03,0.2-64.07,0.21-96.1,0.04c-5.28-0.03-7.17,1.54-7.05,6.74
		c0.31,13.16,0.45,26.35-0.03,39.5c-0.21,5.95,2.03,7.15,7.62,7.03C1270.95,560.98,1286.63,561.19,1302.3,561.18z M1243.94,833.02
		c-15.67,0-31.35,0.35-47-0.16c-7.02-0.23-8.64,2.2-8.41,8.48c0.46,12.16,0.5,24.36-0.02,36.52c-0.28,6.39,1.58,8.49,8.4,8.42
		c31.33-0.3,62.67-0.27,94.01,0.04c6.48,0.06,8.08-2.12,7.9-7.96c-0.39-12.49-0.58-25.03,0.06-37.5c0.37-7.13-2.77-8.08-8.95-7.95
		C1274.6,833.23,1259.27,833.01,1243.94,833.02z M682.61,822.1c0,0.01,0,0.03,0,0.04c15.69,0,31.4-0.3,47.08,0.15
		c6.43,0.18,8.21-1.8,8.01-7.81c-0.43-12.84-0.35-25.71-0.03-38.56c0.13-5.29-1.97-6.74-7.14-6.72
		c-32.07,0.16-64.14,0.18-96.21-0.02c-5.43-0.03-7.09,1.82-7,6.88c0.25,12.85,0.42,25.72-0.07,38.56c-0.24,6.37,2.24,7.74,8.28,7.6
		C651.22,821.86,666.92,822.1,682.61,822.1z M623.33,886.06c0,0.03,0,0.05,0,0.08c16.01,0,32.02-0.21,48.02,0.11
		c5.88,0.12,7.7-1.83,7.56-7.38c-0.34-12.83-0.32-25.67-0.01-38.5c0.13-5.42-1.47-7.52-7.44-7.47c-32.01,0.26-64.03,0.27-96.05,0.08
		c-5.43-0.03-7,1.7-6.88,6.81c0.32,13.16,0.44,26.33-0.03,39.48c-0.22,6.14,2.52,6.96,7.83,6.88
		C592,885.9,607.67,886.06,623.33,886.06z M1243.74,1009.75c15.67,0,31.35-0.22,47.01,0.12c5.88,0.13,8.63-0.91,8.37-7.42
		c-0.5-12.82-0.38-25.67-0.03-38.5c0.15-5.51-1.57-7.4-7.47-7.35c-31.69,0.26-63.37,0.3-95.05,0.03c-6.47-0.06-8.04,2.15-7.86,7.98
		c0.4,12.5,0.44,25.02,0,37.52c-0.21,6.03,1.6,7.97,8,7.79C1212.38,1009.44,1228.06,1009.75,1243.74,1009.75z M685.81,638.71
		c0-0.02,0-0.03,0-0.05c-16.33,0-32.67,0.14-49.01-0.08c-5.03-0.07-7.35,1.03-7.19,6.5c0.38,13.14,0.4,26.31,0.04,39.45
		c-0.16,5.74,1.94,7.2,7.66,7.15c31.65-0.25,63.3-0.25,94.96-0.04c5.55,0.04,7.99-1.16,7.81-7.06c-0.39-12.81-0.45-25.66,0.04-38.46
		c0.24-6.44-2.48-7.63-8.35-7.51C716.45,638.92,701.13,638.71,685.81,638.71z M746.07,313.91c0-0.02,0-0.04,0-0.05
		c-16.04,0-32.07,0.16-48.11-0.09c-5.1-0.08-7.33,0.98-7.15,6.51c0.42,13.17,0.45,26.38,0.06,39.55c-0.17,5.78,1.95,7.19,7.63,7.15
		c31.73-0.21,63.46-0.18,95.2,0.07c5.63,0.04,7.89-1.27,7.69-7.12c-0.42-12.84-0.5-25.72,0.02-38.56c0.26-6.42-2.22-7.71-8.25-7.57
		C777.47,314.15,761.77,313.91,746.07,313.91z M64.44,430.8c0,0.02,0,0.04,0,0.07c16.02,0,32.03-0.13,48.05,0.08
		c4.91,0.06,7.51-0.79,7.38-6.39c-0.34-13.49-0.25-27-0.01-40.5c0.08-4.66-1.46-6.36-6.41-6.33c-32.38,0.19-64.76,0.25-97.13,0.07
		c-5.49-0.03-6.96,1.81-6.85,6.86c0.3,13.16,0.29,26.34-0.03,39.51c-0.12,5.14,1.57,6.83,6.95,6.73
		C32.4,430.61,48.42,430.8,64.44,430.8z M374.62,886.09c0,0.03,0,0.07,0,0.1c16.35,0,32.7-0.16,49.06,0.09
		c5.09,0.08,7.32-1,7.15-6.5c-0.4-13.48-0.39-26.99-0.03-40.48c0.14-5.54-2.22-6.41-7.25-6.38c-32.02,0.2-64.04,0.21-96.08,0.06
		c-4.99-0.02-7.42,0.9-7.27,6.43c0.36,13.49,0.38,26.99,0,40.48c-0.16,5.73,2.58,6.34,7.41,6.27
		C343.28,885.96,358.95,886.09,374.62,886.09z M684.11,430.81c0,0.02,0,0.04,0,0.06c16,0,32-0.2,47.99,0.11
		c5.58,0.11,7.89-1.22,7.69-7.06c-0.43-13.14-0.47-26.31-0.1-39.45c0.15-5.33-1.68-6.75-6.93-6.72
		c-31.99,0.19-63.99,0.19-95.99,0.06c-4.98-0.02-7.43,0.98-7.26,6.51c0.39,13.14,0.43,26.31,0.04,39.46
		c-0.17,5.74,1.92,7.25,7.58,7.14C652.79,430.6,668.46,430.81,684.11,430.81z M933.54,430.86c15.65,0,31.31-0.23,46.96,0.12
		c5.9,0.13,7.64-1.79,7.5-7.32c-0.34-12.81-0.3-25.65,0.01-38.46c0.13-5.32-1.21-7.57-7.32-7.51c-31.65,0.29-63.3,0.32-94.95,0.09
		c-6.14-0.04-8.36,1.57-8.12,7.74c0.47,12.15,0.51,24.34,0,36.48c-0.29,6.72,1.6,9.23,8.96,8.99
		C902.23,430.49,917.89,430.84,933.54,430.86z M1304.08,430.87c16,0,32-0.29,47.99,0.14c6.45,0.17,8.09-1.98,7.92-7.88
		c-0.39-12.81-0.25-25.65,0.03-38.47c0.11-4.94-1.23-6.97-6.8-6.94c-31.99,0.22-63.98,0.21-95.98,0.02
		c-5.72-0.04-7.76,1.64-7.59,7.31c0.4,12.81,0.54,25.66,0.05,38.46c-0.25,6.56,2.7,7.54,8.44,7.44
		C1273.44,430.68,1288.77,430.86,1304.08,430.87z M993.19,1138.5c0-0.01,0-0.02,0-0.03c16.03,0,32.06-0.07,48.09,0.04
		c4.51,0.03,7.89-0.08,7.72-6.08c-0.36-13.83-0.26-27.68-0.01-41.52c0.08-4.64-2.07-5.36-6.16-5.34c-32.4,0.13-64.81,0.21-97.21,0
		c-5.56-0.04-6.91,1.91-6.8,6.87c0.29,12.85,0.45,25.71-0.02,38.55c-0.23,6.39,2.4,7.73,8.33,7.61
		C962.48,1138.29,977.83,1138.5,993.19,1138.5z M745.03,1138.49c0-0.02,0-0.03,0-0.05c16.34,0,32.69-0.17,49.04,0.1
		c5.36,0.09,7.1-1.62,6.99-6.77c-0.31-13.15-0.44-26.33,0.02-39.47c0.21-6.13-2.58-6.79-7.81-6.75
		c-31.67,0.19-63.34,0.24-95.01,0.02c-5.64-0.04-7.75,1.29-7.56,7.07c0.44,12.82,0.49,25.67,0.02,38.48
		c-0.23,6.41,2.42,7.62,8.34,7.48C714.37,1138.26,729.69,1138.49,745.03,1138.49z M682.1,561.24c0-0.02,0-0.04,0-0.06
		c16.03,0,32.05-0.24,48.07,0.12c5.88,0.13,7.62-1.69,7.48-7.25c-0.36-13.17-0.35-26.35-0.01-39.52c0.14-5.43-2.1-6.57-7.21-6.54
		c-32.04,0.2-64.1,0.23-96.14,0.06c-5.38-0.03-7.12,1.76-7.02,6.85c0.26,13.17,0.41,26.36-0.03,39.52c-0.2,6.05,2.46,7,7.83,6.9
		C650.73,561.06,666.41,561.24,682.1,561.24z M374.17,1085.63c0,0.02,0,0.03,0,0.05c-16,0-32,0.19-48-0.1
		c-5.55-0.1-7.82,1.23-7.64,7.04c0.4,12.81,0.33,25.65,0,38.47c-0.13,5.34,1.27,7.6,7.31,7.55c32-0.26,63.99-0.26,96-0.11
		c5.24,0.02,7.22-1.48,7.11-6.71c-0.3-13.15-0.4-26.32,0.05-39.46c0.2-6.09-2.58-6.89-7.83-6.8
		C405.5,1085.78,389.83,1085.63,374.17,1085.63z M1305.3,691.51c16.01,0,32-0.2,48,0.11c5.41,0.1,7.09-1.62,6.98-6.73
		c-0.29-13.15-0.41-26.32,0.06-39.46c0.21-6.17-2.66-6.83-7.9-6.8c-31.67,0.17-63.32,0.21-94.99-0.03c-5.77-0.04-7.74,1.49-7.57,7.2
		c0.4,12.82,0.49,25.67-0.02,38.48c-0.26,6.6,2.68,7.47,8.46,7.35C1273.97,691.3,1289.63,691.51,1305.3,691.51z M994.03,366.85
		c0,0.01,0,0.03,0,0.04c15.99,0,31.98-0.12,47.97,0.07c4.88,0.06,7.44-0.78,7.28-6.41c-0.38-13.46-0.36-26.95,0.07-40.42
		c0.18-5.82-2.72-6.3-7.45-6.28c-31.98,0.1-63.95,0.15-95.93-0.1c-5.64-0.04-6.79,1.99-6.69,6.9c0.24,12.81,0.29,25.64-0.19,38.45
		c-0.22,6.03,1.68,8.04,8.01,7.88C962.73,366.6,978.38,366.85,994.03,366.85z M991.93,188.04c0-0.03,0-0.05,0-0.08
		c-16.04,0-32.07,0.15-48.1-0.09c-5.17-0.08-7.33,1.31-7.2,6.64c0.31,13.18,0.38,26.37-0.03,39.55c-0.18,5.95,2.37,6.97,7.79,6.94
		c31.73-0.19,63.45-0.16,95.18,0c4.89,0.02,7.42-0.62,7.22-6.35c-0.46-13.17-0.42-26.37-0.01-39.54c0.18-5.88-2.18-7.26-7.76-7.16
		C1023.33,188.22,1007.64,188.04,991.93,188.04z M874.19,497.38c0,0.01,0,0.02,0,0.03c15.99,0,31.98-0.17,47.97,0.09
		c5.26,0.09,7.15-1.41,7.01-6.69c-0.35-13.14-0.28-26.3-0.01-39.44c0.1-4.79-0.8-7.08-6.59-7.03c-32.32,0.25-64.64,0.23-96.96,0.04
		c-5.27-0.03-7.1,1.37-6.95,6.64c0.37,13.14,0.41,26.3-0.01,39.44c-0.18,5.78,1.85,7.18,7.57,7.05
		C842.2,497.14,858.19,497.38,874.19,497.38z M501.58,497.45c0-0.03,0-0.06,0-0.09c16.03,0,32.06-0.13,48.09,0.08
		c4.97,0.06,7.49-0.94,7.35-6.5c-0.35-13.5-0.3-27.02-0.01-40.53c0.11-5-2.06-6.03-6.67-6.01c-32.4,0.15-64.81,0.22-97.21,0.01
		c-5.64-0.04-6.83,2.01-6.72,6.95c0.3,13.18,0.35,26.37-0.02,39.54c-0.15,5.39,1.93,6.72,7.11,6.64
		C469.52,497.29,485.55,497.45,501.58,497.45z M624.5,497.45c0-0.03,0-0.07,0-0.1c16.35,0,32.7-0.21,49.05,0.11
		c5.64,0.11,7.85-1.26,7.67-7.08c-0.41-13.15-0.38-26.33-0.01-39.48c0.15-5.41-2.01-6.56-7.12-6.53
		c-32.36,0.19-64.72,0.19-97.08,0.02c-4.83-0.03-6.54,1.26-6.44,6.06c0.28,13.49,0.29,26.99,0,40.47c-0.11,5.11,1.43,6.79,6.93,6.66
		C593.16,497.21,608.84,497.45,624.5,497.45z M1121.53,497.34c16,0,31.99-0.2,47.99,0.11c5.64,0.11,7.78-1.36,7.59-7.14
		c-0.42-12.81-0.37-25.65-0.01-38.46c0.15-5.36-1.14-7.53-7.2-7.48c-31.99,0.25-63.98,0.25-95.97-0.01c-6.17-0.05-7.34,2.37-7.2,7.6
		c0.3,12.49,0.52,25-0.06,37.47c-0.32,6.96,2.6,8.2,8.94,8.05C1090.9,497.1,1106.22,497.35,1121.53,497.34z M371.78,1271.82
		c0,0.04,0,0.08,0,0.12c16.36,0,32.74-0.15,49.1,0.09c4.93,0.07,7.43-0.67,7.25-6.32c-0.42-13.5-0.3-27.01-0.07-40.52
		c0.08-4.74-1.6-6.16-6.52-6.14c-32.39,0.18-64.79,0.14-97.18-0.04c-4.6-0.02-6.88,0.79-6.77,5.89c0.3,13.5,0.33,27.02,0.01,40.52
		c-0.12,5.33,1.86,6.63,7.12,6.52C340.41,1271.61,356.1,1271.82,371.78,1271.82z M312.15,895.09c0,0.03,0,0.05,0,0.08
		c-15.68,0-31.36,0.2-47.03-0.1c-5.78-0.11-7.66,1.65-7.49,7.31c0.42,12.83,0.43,25.69,0.02,38.52c-0.18,5.74,1.88,7.21,7.56,7.18
		c32.03-0.19,64.08-0.13,96.11,0.08c5.38,0.04,7.06-1.74,6.94-6.86c-0.31-12.83-0.42-25.69,0.05-38.52
		c0.22-6.18-1.94-7.93-8.11-7.79C344.19,895.32,328.17,895.09,312.15,895.09z M559.87,948.03c0,0.02,0,0.04,0,0.06
		c16,0,32-0.24,47.99,0.12c6.1,0.14,8.42-1.35,8.16-7.65c-0.5-12.81-0.5-25.66-0.01-38.46c0.22-5.94-2.04-7.15-7.6-7.11
		c-31.66,0.22-63.31,0.32-94.96,0.02c-6.65-0.06-7.97,2.38-7.81,8.06c0.33,12.49,0.43,25-0.05,37.48c-0.24,6.36,2.37,7.72,8.32,7.59
		C529.24,947.82,544.56,948.03,559.87,948.03z M808.69,948.03c0,0.03,0,0.06,0,0.09c16.04,0,32.07-0.11,48.1,0.07
		c4.8,0.05,7.56-0.61,7.4-6.34c-0.39-13.5-0.26-27.03-0.05-40.54c0.07-4.55-1.22-6.38-6.32-6.35c-32.41,0.22-64.82,0.25-97.23,0.09
		c-5.28-0.02-7.15,1.49-7.02,6.73c0.34,13.18,0.35,26.37,0.04,39.55c-0.12,5.18,1.63,6.88,6.97,6.79
		C776.61,947.86,792.65,948.03,808.69,948.03z M1180.45,948.1c16.02,0,32.04-0.05,48.06,0.03c4.39,0.02,7.98,0.09,7.83-5.97
		c-0.33-13.82-0.2-27.66-0.02-41.49c0.06-4.35-1.81-5.65-6.07-5.64c-32.73,0.11-65.44,0.15-98.17,0.01
		c-5.01-0.02-6.31,1.78-6.21,6.38c0.29,13.17,0.39,26.35-0.02,39.51c-0.17,5.72,1.85,7.37,7.56,7.27
		C1149.09,947.9,1164.77,948.09,1180.45,948.1z M125.17,625.21c0-0.03,0-0.06,0-0.09c16.02,0,32.03-0.17,48.04,0.1
		c5.28,0.09,7.14-1.42,7.01-6.67c-0.34-13.16-0.31-26.33-0.01-39.49c0.11-5.04-1.39-6.86-6.86-6.82
		c-32.02,0.23-64.05,0.26-96.08,0.04c-5.75-0.04-7.72,1.45-7.52,7.19c0.44,12.49,0.49,25.02,0.02,37.52
		c-0.23,6.31,1.45,8.61,8.39,8.39C93.81,624.87,109.49,625.21,125.17,625.21z M124.66,757.55c0,0.07,0,0.15,0,0.22
		c15.68,0,31.37-0.24,47.04,0.12c5.97,0.14,8.59-1.1,8.34-7.51c-0.47-12.5-0.41-25.04,0.04-37.54c0.21-5.97-1.52-7.86-7.93-7.8
		c-31.7,0.3-63.41,0.19-95.11-0.01c-4.98-0.03-7.48,0.73-7.33,6.36c0.37,13.16,0.32,26.35,0,39.52c-0.12,5.08,1.33,6.88,6.87,6.77
		C92.62,757.33,108.65,757.55,124.66,757.55z M65.21,1204.9c0-0.01,0-0.03,0-0.04c16.01,0,32.01-0.12,48.02,0.08
		c4.84,0.06,7.52-0.61,7.36-6.31c-0.39-13.48-0.31-26.98-0.02-40.47c0.1-4.96-2.04-6.09-6.66-6.08
		c-32.35,0.11-64.71,0.15-97.07-0.08c-5.66-0.04-6.75,2.1-6.64,6.99c0.3,13.16,0.35,26.33-0.03,39.48
		c-0.15,5.37,1.86,6.62,7.03,6.53C33.19,1204.73,49.21,1204.9,65.21,1204.9z M313.74,1204.84c15.65,0,31.3-0.3,46.94,0.14
		c6.39,0.18,8.13-1.75,7.91-7.77c-0.48-12.8-0.39-25.63-0.06-38.44c0.13-5.25-1.8-6.72-7.02-6.7c-31.97,0.15-63.95,0.19-95.92-0.1
		c-6.06-0.06-7.53,2.02-7.4,7.44c0.33,12.81,0.4,25.64-0.01,38.44c-0.18,5.79,1.95,7.24,7.61,7.13
		C281.76,1204.67,297.75,1204.87,313.74,1204.84z M685.73,1204.9c0-0.02,0-0.04,0-0.06c16.03,0,32.06-0.19,48.08,0.11
		c5.37,0.1,7.07-1.54,6.94-6.72c-0.34-12.84-0.49-25.71,0.05-38.54c0.26-6.38-2.13-7.67-8.17-7.63
		c-31.72,0.22-63.43,0.23-95.15-0.09c-6.09-0.06-7.45,1.95-7.31,7.36c0.35,12.84,0.39,25.71-0.01,38.54
		c-0.17,5.64,1.7,7.28,7.47,7.16C653.67,1204.67,669.69,1204.9,685.73,1204.9z M496.75,1271.81c0,0.03,0,0.06,0,0.08
		c16,0,32-0.25,48,0.13c5.81,0.14,7.65-1.34,7.45-7.12c-0.46-12.81-0.37-25.66,0.01-38.47c0.16-5.58-1.66-7.39-7.5-7.35
		c-31.99,0.21-63.99,0.19-96-0.07c-5.54-0.05-6.84,1.74-6.7,6.76c0.34,12.82,0.43,25.66-0.02,38.47c-0.2,5.92,1.25,7.95,7.78,7.74
		C465.42,1271.47,481.09,1271.81,496.75,1271.81z M745.19,1271.83c0,0.01,0,0.03,0,0.04c16.02,0,32.03-0.14,48.05,0.08
		c4.94,0.07,7.37-0.79,7.19-6.39c-0.42-13.16-0.43-26.34-0.02-39.5c0.18-5.96-2.36-7-7.8-6.97c-31.69,0.17-63.37,0.15-95.07-0.06
		c-5.48-0.04-7.92,1.13-7.71,7.05c0.43,12.83,0.48,25.69-0.06,38.51c-0.28,6.59,2.61,7.46,8.41,7.34
		C713.84,1271.62,729.52,1271.83,745.19,1271.83z M992.97,1219.2c0-0.03,0-0.06,0-0.09c-15.66,0-31.32,0.02-46.97-0.01
		c-4.18-0.01-8.2-0.58-8.06,5.71c0.32,13.81,0.31,27.63,0.04,41.43c-0.1,5.26,2.6,5.7,6.94,5.68c32.34-0.11,64.68-0.13,97,0.03
		c4.77,0.02,6.58-1.23,6.47-6.08c-0.3-13.15-0.44-26.32,0.04-39.46c0.23-6.57-2.69-7.46-8.49-7.33
		C1024.29,1219.42,1008.63,1219.2,992.97,1219.2z M1117.84,1271.84c0,0.02,0,0.03,0,0.05c16,0,31.99-0.23,47.98,0.13
		c5.49,0.12,6.95-1.52,6.81-6.67c-0.36-13.14-0.3-26.3,0-39.45c0.11-5.07-1.45-6.85-6.91-6.82c-32.33,0.19-64.66,0.21-96.98-0.09
		c-5.78-0.05-6.73,2.05-6.63,6.87c0.26,12.82,0.39,25.65-0.04,38.46c-0.19,5.89,1.22,7.92,7.8,7.7
		C1085.84,1271.47,1101.85,1271.84,1117.84,1271.84z M1241.57,1271.88c15.67,0,31.35-0.2,47.01,0.11c5.44,0.11,7.99-0.78,7.77-6.85
		c-0.46-12.82-0.47-25.68,0.02-38.5c0.24-6.37-2.29-7.6-8.25-7.55c-31.68,0.22-63.36,0.22-95.04-0.06c-6.07-0.05-7.46,2-7.28,7.47
		c0.4,12.17,0.68,24.39-0.1,36.52c-0.51,7.93,2.7,9.23,9.88,9C1210.91,1271.54,1226.24,1271.87,1241.57,1271.88z M934.04,1152.18
		c0-0.02,0-0.04,0-0.06c-16,0-31.99,0.18-47.99-0.1c-5.47-0.1-7.96,1.02-7.76,6.98c0.43,13.14,0.38,26.31,0.02,39.45
		c-0.14,5.42,2.07,6.55,7.15,6.52c31.99-0.18,63.98-0.25,95.98,0.01c6.06,0.05,7.43-2.06,7.27-7.43
		c-0.35-12.49-0.57-25.01,0.04-37.47c0.34-6.92-2.46-8.17-8.77-8.02C964.68,1152.42,949.36,1152.18,934.04,1152.18z M496.27,64.58
		c0-0.02,0-0.04,0-0.05c-16.03,0-32.05,0.18-48.08-0.1c-5.46-0.1-7.92,0.99-7.71,6.96c0.44,12.83,0.34,25.7,0,38.54
		c-0.14,5.39,1.25,7.56,7.34,7.51c31.71-0.28,63.42-0.26,95.13-0.09c5.49,0.03,7.95-1.1,7.74-7.04c-0.44-12.83-0.39-25.7-0.03-38.54
		c0.15-5.45-1.39-7.45-7.34-7.31C527.65,64.83,511.96,64.58,496.27,64.58z M743.88,64.56c0-0.01,0-0.02,0-0.04
		c-16,0-32,0.22-48-0.12c-5.81-0.12-7.69,1.58-7.52,7.24c0.39,12.82,0.37,25.66-0.01,38.47c-0.16,5.67,1.85,7.31,7.59,7.27
		c32-0.24,63.99-0.26,96-0.07c5.44,0.03,6.99-1.74,6.87-6.8c-0.31-13.15-0.37-26.32,0-39.46c0.15-5.28-1.64-6.7-6.93-6.61
		C775.88,64.75,759.88,64.56,743.88,64.56z M866.98,117.29c0-0.01,0-0.03,0-0.04c16.01,0,32.02-0.27,48.02,0.13
		c6.38,0.16,8.2-1.85,7.99-7.87c-0.44-12.49-0.33-25.01-0.02-37.5c0.13-5.17-0.82-7.62-7.09-7.57c-32.35,0.27-64.71,0.19-97.06-0.01
		c-5.05-0.03-6.33,1.7-6.25,6.27c0.24,13.16,0.35,26.33-0.04,39.48c-0.16,5.59,1.61,7.36,7.45,7.23
		C835.64,117.06,851.31,117.29,866.98,117.29z M1114.73,117.3c0-0.02,0-0.04,0-0.06c16.36,0,32.72-0.13,49.08,0.08
		c4.93,0.06,7.44-0.8,7.27-6.39c-0.39-13.49-0.36-27-0.03-40.49c0.12-5.04-1.95-5.95-6.57-5.93c-32.38,0.14-64.75,0.18-97.13-0.08
		c-5.6-0.04-6.85,1.86-6.73,6.84c0.3,13.16,0.33,26.34-0.02,39.51c-0.14,5.35,1.95,6.71,7.11,6.63
		C1083.38,117.14,1099.06,117.3,1114.73,117.3z M1116.71,625.2c0-0.02,0-0.04,0-0.06c16,0,31.99-0.31,47.97,0.15
		c6.42,0.19,8.14-1.77,7.94-7.75c-0.43-12.48-0.43-24.99,0.03-37.47c0.22-6.03-1.62-7.93-7.98-7.87
		c-31.65,0.29-63.29,0.26-94.94,0.06c-5.39-0.03-7.91,0.83-7.69,6.85c0.47,13.13,0.46,26.31,0,39.44c-0.21,6.04,2.26,6.88,7.71,6.76
		C1085.4,624.97,1101.05,625.2,1116.71,625.2z M744.99,705.18c0-0.02,0-0.03,0-0.05c-16,0-31.99,0.05-47.99-0.03
		c-4.02-0.02-7.24-0.1-7.11,5.44c0.33,13.8,0.34,27.62,0.05,41.43c-0.11,5.25,2.57,5.74,6.89,5.73c32.33-0.07,64.67-0.06,96.99,0.11
		c4.67,0.03,6.67-1.03,6.54-6.02c-0.33-13.15-0.34-26.31,0-39.45c0.14-5.47-1.48-7.42-7.4-7.28
		C776.98,705.43,760.98,705.18,744.99,705.18z M496.76,572.35c0,0.01,0,0.02,0,0.03c-15.66,0-31.33,0.3-46.97-0.15
		c-6.41-0.18-8.06,1.72-7.82,7.75c0.5,12.81,0.34,25.65,0.07,38.47c-0.1,4.83,0.92,6.92,6.61,6.87c32.34-0.26,64.68-0.21,97.01-0.07
		c4.84,0.02,6.56-1.4,6.46-6.19c-0.29-12.82-0.4-25.66,0.05-38.47c0.21-6.28-1.37-8.67-8.44-8.42
		C528.09,572.73,512.42,572.35,496.76,572.35z M991.95,625.28c0-0.05,0-0.1,0-0.16c16.34,0,32.68-0.22,49.03,0.12
		c5.85,0.12,7.59-1.66,7.43-7.25c-0.39-13.15-0.3-26.31-0.02-39.47c0.1-4.77-1.62-6.28-6.46-6.26c-32.34,0.16-64.69,0.18-97.02,0.05
		c-5.3-0.02-7.08,1.71-6.95,6.88c0.33,13.15,0.32,26.32,0,39.47c-0.12,5.22,1.74,6.8,7.03,6.71
		C960.63,625.1,976.29,625.28,991.95,625.28z M247.67,64.57c0-0.02,0-0.04,0-0.05c-16.04,0-32.06,0.14-48.1-0.08
		c-4.8-0.07-7.49,0.39-7.31,6.16c0.43,13.5,0.32,27.02,0.05,40.53c-0.09,4.66,1.23,6.3,6.28,6.27c32.4-0.21,64.81-0.23,97.22-0.06
		c5.32,0.03,7.12-1.55,6.99-6.75c-0.33-13.18-0.37-26.37,0-39.54c0.15-5.35-1.82-6.66-7.03-6.57
		C279.74,64.75,263.7,64.57,247.67,64.57z M1241.35,625.17c16,0,32-0.18,48,0.1c5.23,0.09,7.23-1.24,7.09-6.58
		c-0.35-13.15-0.43-26.32,0.03-39.46c0.2-6-2.31-7.03-7.74-6.99c-31.66,0.2-63.31,0.21-94.97,0.03c-5.55-0.03-7.89,1.33-7.7,7.16
		c0.4,12.81,0.5,25.66-0.06,38.47c-0.29,6.64,2.57,7.48,8.4,7.35C1210.03,624.92,1225.69,625.14,1241.35,625.17z M372.86,625.22
		c0-0.02,0-0.05,0-0.07c16.02,0,32.03-0.19,48.04,0.11c5.1,0.1,7.33-0.88,7.18-6.37c-0.36-13.49-0.32-27,0-40.49
		c0.11-4.89-1.71-6.16-6.49-6.14c-32.37,0.17-64.75,0.19-97.12,0.07c-5.37-0.02-7,1.89-6.88,6.98c0.32,12.83,0.45,25.69-0.07,38.51
		c-0.25,6.45,2.34,7.65,8.3,7.51C341.5,624.98,357.18,625.22,372.86,625.22z M247.68,625.2c0-0.02,0-0.05,0-0.07
		c16.35,0,32.7-0.2,49.06,0.11c5.64,0.11,7.89-1.31,7.71-7.11c-0.39-12.83-0.37-25.67-0.02-38.5c0.15-5.63-1.85-7.41-7.6-7.38
		c-32.02,0.21-64.04,0.23-96.07,0.05c-5.36-0.03-7.01,1.54-6.87,6.72c0.37,13.16,0.44,26.34,0.01,39.49
		c-0.19,6.03,2.27,6.95,7.78,6.82C217.01,624.97,232.36,625.2,247.68,625.2z M745.2,625.19c0-0.02,0-0.04,0-0.06
		c16.03,0,32.05-0.16,48.07,0.09c5.11,0.08,7.26-1.14,7.11-6.55c-0.37-13.17-0.45-26.36,0.01-39.52c0.21-6.12-2.55-6.91-7.86-6.88
		c-31.71,0.19-63.41,0.23-95.12,0.03c-5.58-0.04-7.83,1.25-7.64,7.08c0.42,12.83,0.51,25.7-0.04,38.53
		c-0.29,6.63,2.63,7.5,8.41,7.39C713.83,624.99,729.51,625.19,745.2,625.19z M995.92,1009.75c15.67,0,31.34-0.17,47.01,0.1
		c5.32,0.09,8.03-0.72,7.81-6.82c-0.45-13.15-0.33-26.32-0.01-39.48c0.11-4.91-0.95-6.99-6.63-6.94
		c-32.01,0.25-64.03,0.21-96.06,0.06c-4.92-0.02-7.43,0.75-7.26,6.36c0.39,13.48,0.35,26.99,0,40.47c-0.14,5.4,1.91,6.51,7.12,6.4
		C963.9,1009.56,979.9,1009.77,995.92,1009.75z M620.27,625.18c0-0.02,0-0.04,0-0.06c16,0,32-0.29,47.98,0.14
		c6.42,0.17,8.12-1.83,7.92-7.82c-0.45-12.81-0.38-25.65-0.03-38.46c0.14-5.17-1.54-6.83-6.88-6.79
		c-31.99,0.22-63.97,0.28-95.97,0.08c-5.85-0.04-7.64,1.8-7.49,7.36c0.36,12.81,0.38,25.65-0.03,38.46
		c-0.18,5.72,1.79,7.32,7.55,7.2C588.96,624.97,604.62,625.18,620.27,625.18z M125.86,313.9c0-0.02,0-0.04,0-0.06
		c-16.03,0-32.05,0.18-48.07-0.1c-5.19-0.09-7.2,1.21-7.08,6.52c0.32,13.17,0.36,26.36-0.05,39.52c-0.17,5.79,2.04,7.19,7.67,7.16
		c32.05-0.19,64.1-0.15,96.15,0.05c4.8,0.03,6.6-1.15,6.5-6.01c-0.29-13.5-0.32-27.01-0.01-40.51c0.12-5.22-1.71-6.77-7.04-6.67
		C157.91,314.09,141.87,313.9,125.86,313.9z M1181.97,1204.84c15.67,0,31.34-0.32,46.99,0.15c6.53,0.2,8.04-1.94,7.82-7.85
		c-0.44-12.49-0.48-25.02,0.03-37.5c0.25-6.32-2.15-7.65-8.17-7.6c-31.67,0.25-63.34,0.3-95.02-0.01c-6.15-0.06-7.46,1.99-7.32,7.37
		c0.34,12.82,0.43,25.67,0.03,38.49c-0.18,5.8,1.9,7.21,7.6,7.08C1149.96,1204.62,1165.96,1204.85,1181.97,1204.84z M621.21,1271.81
		c0,0.03,0,0.05,0,0.08c16,0,31.99-0.04,47.99,0.03c4,0.02,7.18,0.25,7.01-5.45c-0.41-13.8-0.33-27.62-0.05-41.42
		c0.1-5.07-2.26-5.93-6.77-5.92c-32.33,0.09-64.67,0.12-96.99-0.1c-5.69-0.04-6.7,2.19-6.57,7.09c0.33,12.49,0.38,25-0.04,37.48
		c-0.2,6.24,1.48,8.61,8.47,8.37C589.89,1271.44,605.55,1271.81,621.21,1271.81z M1306.47,1152.15c-16.04,0-32.07,0.18-48.1-0.1
		c-5.37-0.1-8.02,0.72-7.79,6.82c0.48,13.17,0.42,26.37,0.07,39.55c-0.14,5.27,1.64,6.59,6.95,6.55c32.06-0.24,64.14-0.29,96.2,0
		c6.1,0.06,7.42-2,7.27-7.35c-0.34-12.85-0.39-25.71-0.02-38.56c0.16-5.65-1.7-7.2-7.51-7.04
		C1337.86,1152.42,1322.16,1152.15,1306.47,1152.15z M1056.66,947.96c0,0.04,0,0.08,0,0.12c16.03,0,32.06-0.24,48.09,0.12
		c5.92,0.13,7.55-1.84,7.41-7.31c-0.34-13.17-0.25-26.36-0.04-39.54c0.07-4.53-1.2-6.38-6.28-6.35c-32.4,0.2-64.8,0.21-97.2,0.05
		c-5.23-0.03-7.05,1.3-6.87,6.68c0.45,13.17,0.4,26.36,0.01,39.53c-0.15,5.17,1.4,6.88,6.79,6.79
		C1024.6,947.78,1040.64,947.96,1056.66,947.96z M992.93,757.72c0,0.02,0,0.03,0,0.05c16.03,0,32.05-0.11,48.08,0.07
		c4.82,0.05,7.53-0.66,7.36-6.36c-0.4-13.17-0.28-26.36-0.03-39.53c0.09-4.91-1.18-6.91-6.82-6.88c-32.4,0.19-64.79,0.07-97.19-0.12
		c-4.93-0.03-6.43,1.68-6.33,6.36c0.28,12.51,0.42,25.05-0.06,37.55c-0.25,6.66,1.58,9.26,8.95,9.02
		C962.23,757.37,977.59,757.72,992.93,757.72z M372.88,757.71c0,0.02,0,0.04,0,0.06c16.04,0,32.06-0.05,48.1,0.03
		c4.09,0.02,7.22-0.04,7.1-5.54c-0.33-13.84-0.25-27.68-0.06-41.52c0.06-4.31-1.55-5.65-5.93-5.63c-32.75,0.12-65.5,0.11-98.25-0.05
		c-5.02-0.02-6.3,1.78-6.18,6.41c0.31,12.85,0.38,25.71-0.02,38.55c-0.19,6.08,1.92,7.97,8.18,7.82
		C341.49,757.46,357.19,757.71,372.88,757.71z M188.88,947.99c16.01,0,32.01-0.15,48.02,0.09c5.01,0.07,7.29-0.98,7.13-6.44
		c-0.38-13.15-0.32-26.32-0.03-39.48c0.12-5.55-1.91-7.2-7.64-7.15c-31.67,0.27-63.34,0.26-95.02,0.08
		c-5.47-0.03-7.94,1.1-7.74,7.02c0.42,12.82,0.47,25.67-0.03,38.49c-0.25,6.43,2.36,7.65,8.32,7.52
		C157.55,947.78,173.22,948.01,188.88,947.99z M248.92,1271.82c0,0.02,0,0.04,0,0.06c16.02,0,32.03-0.02,48.05,0.01
		c3.79,0.01,7.38,0.65,7.21-5.21c-0.38-13.82-0.28-27.65-0.07-41.48c0.07-4.82-1.95-6.1-6.67-6.09
		c-32.37,0.12-64.74,0.14-97.11-0.11c-5.76-0.05-6.7,2.25-6.6,7.06c0.26,12.83,0.45,25.69-0.07,38.51
		c-0.25,6.44,2.24,7.55,8.24,7.39C217.56,1271.55,233.24,1271.82,248.92,1271.82z M1176.36,249.69c0-0.03,0-0.05,0-0.08
		c-16.04,0-32.07,0.15-48.11-0.09c-4.97-0.07-7.38,0.7-7.17,6.36c0.46,13.17,0.4,26.37,0.09,39.55c-0.12,5.31,1.16,7.45,7.24,7.4
		c32.07-0.26,64.15-0.16,96.22,0.02c4.63,0.03,6.72-0.94,6.61-5.94c-0.31-13.51-0.4-27.04,0.02-40.54c0.18-6.03-2.36-6.92-7.8-6.8
		C1207.75,249.91,1192.05,249.69,1176.36,249.69z M932.92,947.99c0,0.01,0,0.03,0,0.04c16.01,0,32-0.13,48,0.08
		c5.03,0.07,7.35-1.05,7.2-6.54c-0.36-13.48-0.32-26.98,0.05-40.45c0.13-4.98-1.81-6.11-6.47-6.09
		c-32.34,0.14-64.69,0.21-97.03,0.02c-5.51-0.03-6.94,1.88-6.82,6.9c0.31,13.15,0.33,26.32,0.01,39.47
		c-0.13,5.28,1.85,6.74,7.06,6.66C900.91,947.83,916.92,947.99,932.92,947.99z M561.43,1204.89c0-0.02,0-0.04,0-0.06
		c16.01,0,32.01-0.16,48.02,0.09c5.18,0.08,7.19-1.25,7.05-6.59c-0.36-13.15-0.33-26.32-0.02-39.48c0.11-5.04-1.32-6.85-6.83-6.82
		c-32.01,0.2-64.02,0.17-96.03-0.05c-5.6-0.04-7.8,1.29-7.57,7.15c0.48,12.16,0.6,24.36,0,36.51c-0.36,7.19,1.46,9.78,9.42,9.43
		C530.76,1204.42,546.11,1204.89,561.43,1204.89z M1178.14,2.88c0-0.01,0-0.03,0-0.04c-16.01,0-32,0.11-48-0.07
		c-4.45-0.05-6.88,0.63-6.77,5.81c0.31,13.81,0.25,27.63-0.03,41.44c-0.09,4.48,1.64,5.52,5.93,5.5
		c32.68-0.14,65.37-0.18,98.05-0.03c4.79,0.02,6.57-1.19,6.45-6.08c-0.33-13.15-0.37-26.32,0.01-39.47
		c0.16-5.73-1.97-7.28-7.63-7.17C1210.14,3.07,1194.14,2.88,1178.14,2.88z M1303.12,2.89c0-0.02,0-0.04,0-0.05
		c-16.01,0-32.02,0.21-48.03-0.11c-5.67-0.11-7.82,1.54-7.71,7.15c0.28,12.83,0.3,25.67-0.1,38.5c-0.17,5.7,1.9,7.22,7.61,7.17
		c31.68-0.25,63.36-0.25,95.04-0.06c5.41,0.03,7.93-0.89,7.71-6.9c-0.47-12.82-0.41-25.67-0.02-38.5c0.17-5.62-1.67-7.43-7.49-7.3
		C1334.47,3.1,1318.79,2.89,1303.12,2.89z M438.08,895.08c0,0.02,0,0.04,0,0.07c-16.37,0-32.75,0.13-49.12-0.08
		c-4.93-0.06-7.48,0.8-7.33,6.42c0.38,13.5,0.3,27.03,0.03,40.53c-0.09,4.92,2.08,6.11,6.67,6.1c32.41-0.1,64.82-0.17,97.22,0.09
		c5.9,0.05,6.55-2.43,6.47-7.1c-0.22-13.18-0.33-26.37,0.07-39.54c0.16-5.34-1.66-6.7-6.95-6.6
		C469.47,895.27,453.78,895.08,438.08,895.08z M1241.68,705.15c-16.03,0-32.05,0.24-48.07-0.13c-5.81-0.13-7.68,1.49-7.51,7.17
		c0.4,12.84,0.29,25.69,0.03,38.54c-0.09,4.79,0.96,7.12,6.64,7.08c32.39-0.2,64.78-0.16,97.17-0.01c4.78,0.02,6.57-1.36,6.46-6.17
		c-0.3-13.17-0.38-26.36,0-39.52c0.16-5.8-1.98-7.2-7.67-7.07C1273.05,705.41,1257.36,705.17,1241.68,705.15z M869.22,1271.86
		c15.99,0,31.98-0.15,47.97,0.09c4.98,0.07,7.33-0.81,7.13-6.4c-0.43-12.8-0.49-25.65,0.04-38.44c0.29-6.81-2.54-8.07-8.85-8.03
		c-31.29,0.23-62.59,0.18-93.89-0.1c-5.77-0.05-7.74,1.47-7.57,7.18c0.4,12.81,0.53,25.65-0.05,38.44c-0.3,6.6,2.5,7.47,8.28,7.35
		C837.91,1271.63,853.57,1271.84,869.22,1271.86z M1117.42,705.18c0-0.02,0-0.04,0-0.06c-16.02,0-32.04,0.25-48.05-0.13
		c-5.94-0.14-7.42,1.73-7.24,7.23c0.41,12.83,0.26,25.68,0.03,38.52c-0.08,4.66,0.63,7.14,6.5,7.1c32.37-0.23,64.75-0.17,97.12,0.01
		c5.28,0.03,6.99-1.53,6.83-6.75c-0.4-12.83-0.51-25.69,0.05-38.51c0.28-6.45-2.29-7.63-8.21-7.51
		C1148.78,705.4,1133.1,705.18,1117.42,705.18z M186.25,55.42c16.01,0,32.01-0.16,48.01,0.09c5.07,0.08,7.2-1.05,7.05-6.47
		c-0.39-13.15-0.35-26.32-0.01-39.47c0.13-5.22-1.77-6.79-6.99-6.77c-32.35,0.14-64.7,0.13-97.05-0.06
		c-4.95-0.03-6.41,1.51-6.31,6.22c0.3,13.15,0.37,26.33-0.03,39.47c-0.16,5.54,1.46,7.28,7.31,7.14
		C154.23,55.19,170.25,55.44,186.25,55.42z M123.82,64.54c-16.04,0-32.07,0.23-48.09-0.12c-5.84-0.13-7.57,1.65-7.4,7.23
		c0.4,12.84,0.26,25.7,0.05,38.55c-0.08,4.73,0.93,7.2,6.66,7.16c32.4-0.21,64.81-0.21,97.21-0.05c5.01,0.02,6.39-1.77,6.31-6.34
		c-0.23-12.85-0.5-25.72,0.09-38.55c0.32-6.89-2.5-8.15-8.78-8C154.52,64.79,139.16,64.55,123.82,64.54z M371.42,117.26
		c0-0.02,0-0.05,0-0.07c16.03,0,32.05-0.16,48.07,0.09c5.19,0.08,7.26-1.29,7.13-6.61c-0.33-13.17-0.37-26.35,0-39.52
		c0.14-5.25-1.65-6.67-6.93-6.64c-32.04,0.19-64.1,0.17-96.14-0.05c-5.18-0.03-7.22,1.12-7.07,6.52
		c0.37,13.17,0.43,26.36-0.02,39.52c-0.2,6.14,2.63,6.93,7.93,6.85C340.05,117.1,355.73,117.26,371.42,117.26z M434.24,55.44
		c0-0.02,0-0.03,0-0.05c16.03,0,32.06-0.18,48.09,0.1c5.29,0.09,7.11-1.37,6.97-6.65c-0.36-13.17-0.37-26.37,0.01-39.54
		c0.15-5.51-2.23-6.51-7.22-6.49c-32.06,0.13-64.13,0.12-96.19-0.09c-5.43-0.03-7.04,1.91-6.95,6.92
		c0.24,12.85,0.46,25.72-0.1,38.55c-0.29,6.6,2.55,7.47,8.33,7.35C402.85,55.22,418.55,55.44,434.24,55.44z M557.86,55.47
		c0-0.03,0-0.05,0-0.08c16.37,0,32.75-0.15,49.12,0.09c4.85,0.07,6.54-1.24,6.42-6.11c-0.32-13.18-0.28-26.37,0-39.54
		c0.1-4.92-1.19-7.03-6.78-7.01c-32.41,0.17-64.81,0.13-97.22-0.1c-5.18-0.04-6.2,1.89-6.12,6.37c0.24,13.51,0.3,27.03-0.02,40.53
		c-0.12,4.96,1.76,6.02,6.5,5.94C525.78,55.31,541.82,55.47,557.86,55.47z M808.52,1204.88c0-0.02,0-0.04,0-0.06
		c16.33,0,32.67-0.19,49,0.11c5.34,0.1,7.05-1.41,6.92-6.63c-0.34-13.14-0.31-26.3,0.02-39.44c0.12-5.04-1.28-6.87-6.8-6.83
		c-31.98,0.21-63.97,0.21-95.95-0.03c-5.81-0.04-7.67,1.67-7.5,7.27c0.39,12.48,0.47,24.99,0.01,37.47
		c-0.23,6.31,1.49,8.53,8.37,8.3C777.89,1204.53,793.21,1204.88,808.52,1204.88z M621.34,705.17c0-0.01,0-0.02,0-0.04
		c-16.02,0-32.03,0.01-48.06-0.01c-3.81,0-7.47-0.49-7.36,5.24c0.26,14.15,0.18,28.32-0.01,42.47c-0.06,4.13,1.99,4.91,5.6,4.9
		c32.72-0.05,65.44-0.11,98.16,0.07c5.78,0.03,6.53-2.53,6.43-7.25c-0.28-12.51-0.5-25.04,0.1-37.53c0.34-6.94-2.57-8.13-8.85-7.99
		C652.02,705.41,636.68,705.17,621.34,705.17z M65.47,948.02c0,0.02,0,0.05,0,0.07c15.68,0,31.36-0.2,47.03,0.11
		c5.75,0.11,7.71-1.61,7.55-7.27c-0.38-12.83-0.34-25.69,0-38.52c0.13-5.34-1.13-7.52-7.27-7.46c-31.7,0.31-63.39,0.32-95.08,0.07
		c-6.12-0.05-8.36,1.33-8.09,7.63c0.53,12.49,0.6,25.04-0.01,37.52c-0.34,6.98,2.6,8.1,8.85,7.95
		C34.11,947.78,49.79,948.02,65.47,948.02z M682.31,55.43c0-0.02,0-0.03,0-0.05c16.03,0,32.06-0.19,48.08,0.11
		c5.28,0.1,7.12-1.25,6.97-6.57c-0.39-13.17-0.37-26.36-0.02-39.53c0.14-5.38-2-6.59-7.12-6.57c-32.05,0.16-64.11,0.14-96.16-0.04
		c-5.27-0.03-7.14,1.58-7.01,6.79c0.32,12.84,0.49,25.71-0.08,38.54c-0.29,6.55,2.45,7.56,8.29,7.44
		C650.93,55.22,666.62,55.43,682.31,55.43z M437.08,1204.89c0-0.02,0-0.03,0-0.05c16.01,0,32.01-0.19,48.02,0.1
		c5.51,0.1,7.86-1.15,7.66-7.01c-0.43-12.82-0.36-25.67-0.03-38.49c0.13-5.39-1.3-7.45-7.35-7.41c-32.01,0.25-64.02,0.2-96.04-0.04
		c-5.42-0.04-6.99,1.6-6.87,6.72c0.32,13.15,0.43,26.33-0.05,39.48c-0.22,6.03,2.24,6.91,7.66,6.8
		C405.74,1204.69,421.41,1204.89,437.08,1204.89z M188.24,1204.91c0-0.02,0-0.04,0-0.07c16.34,0,32.68-0.13,49.02,0.08
		c4.9,0.06,7.45-0.77,7.29-6.37c-0.37-13.47-0.29-26.97,0.01-40.45c0.11-4.99-2.1-6-6.66-5.99c-32.34,0.1-64.68,0.15-97.01-0.11
		c-5.72-0.05-6.72,2.15-6.62,6.96c0.26,13.15,0.35,26.32-0.02,39.46c-0.15,5.34,1.79,6.68,7.02,6.58
		C156.92,1204.73,172.59,1204.91,188.24,1204.91z M869.06,625.22c0-0.03,0-0.07,0-0.1c15.99,0,31.98-0.14,47.96,0.08
		c4.94,0.07,7.4-0.79,7.24-6.38c-0.39-13.46-0.29-26.95-0.04-40.42c0.09-4.78-1.77-6.16-6.53-6.14
		c-32.32,0.15-64.64,0.21-96.94-0.04c-5.83-0.05-6.65,2.34-6.58,7.03c0.18,13.14,0.23,26.3-0.12,39.43
		c-0.14,5.3,1.83,6.72,7.07,6.63C837.08,625.05,853.08,625.22,869.06,625.22z M806.53,55.44c0-0.02,0-0.03,0-0.05
		c16.02,0,32.03-0.14,48.05,0.09c4.96,0.07,7.25-0.85,7.07-6.38c-0.43-13.16-0.39-26.34-0.01-39.5c0.14-5.2-1.56-6.78-6.86-6.76
		c-32.37,0.15-64.75,0.1-97.12-0.07c-4.74-0.03-6.65,1.19-6.55,6.09c0.31,13.49,0.41,27,0,40.49c-0.17,5.81,2.64,6.23,7.37,6.17
		C774.49,55.32,790.51,55.44,806.53,55.44z M991.65,64.61c0-0.02,0-0.03,0-0.05c-15.68,0-31.35,0.16-47.03-0.09
		c-5.26-0.08-8.06,0.64-7.85,6.77c0.46,13.16,0.37,26.34,0.03,39.5c-0.13,5.35,2.01,6.61,7.15,6.58c32.03-0.2,64.07-0.24,96.1-0.04
		c5.5,0.03,6.98-1.8,6.86-6.85c-0.31-12.83-0.51-25.7,0.04-38.51c0.29-6.55-2.41-7.55-8.28-7.43
		C1023,64.84,1007.32,64.61,991.65,64.61z M377,497.42c0-0.03,0-0.06,0-0.09c16,0,31.99-0.21,47.98,0.12
		c5.65,0.12,7.9-1.43,7.76-7.09c-0.31-13.15-0.32-26.3-0.05-39.45c0.1-5.11-1.63-6.59-6.95-6.55c-31.99,0.24-63.98,0.28-95.97-0.02
		c-6.16-0.06-7.26,2.12-7.12,7.39c0.34,12.49,0.41,25-0.04,37.48c-0.22,6.3,1.56,8.59,8.45,8.37
		C346.35,497.08,361.69,497.42,377,497.42z M683.75,948.03c0,0.02,0,0.05,0,0.07c16.37,0,32.76-0.14,49.13,0.08
		c5.01,0.07,7.39-0.99,7.24-6.5c-0.36-13.51-0.33-27.03-0.01-40.54c0.12-4.91-1.74-6.18-6.47-6.15
		c-32.41,0.16-64.82,0.23-97.23,0.04c-5.53-0.03-6.85,1.8-6.71,6.86c0.36,13.18,0.38,26.37,0.01,39.55
		c-0.14,5.28,1.68,6.77,6.96,6.68C652.36,947.85,668.06,948.03,683.75,948.03z M868.85,705.19c0-0.04,0-0.07,0-0.11
		c-16.03,0-32.06,0.11-48.09-0.07c-4.46-0.05-6.84,0.53-6.69,5.8c0.38,13.5,0.24,27.02,0.03,40.53c-0.07,4.5,1.09,6.39,6.25,6.37
		c32.4-0.15,64.8-0.09,97.19,0.18c5.55,0.05,6.83-1.85,6.68-6.88c-0.35-12.18-0.48-24.4,0.08-36.57c0.33-7.08-1.4-9.8-9.41-9.44
		C899.58,705.67,884.2,705.19,868.85,705.19z M61.74,55.42c15.68,0,31.36-0.2,47.03,0.1c5.77,0.11,8.62-0.76,8.31-7.39
		c-0.58-12.82-0.39-25.68-0.05-38.52c0.13-5.14-1.49-6.83-6.89-6.8C78.12,2.99,46.09,3,14.06,2.73C7.89,2.68,6.68,5.1,6.8,10.36
		C7.1,23.2,7.14,36.05,6.78,48.88c-0.14,5.2,1.58,6.76,6.91,6.66C29.7,55.26,45.72,55.44,61.74,55.42z M248.7,705.18
		c0-0.02,0-0.04,0-0.06c-15.69,0-31.39,0.32-47.06-0.15c-6.51-0.19-8.11,1.83-7.89,7.84c0.46,12.51,0.33,25.05,0.01,37.56
		c-0.13,5.31,1.27,7.49,7.29,7.45c32.06-0.23,64.13-0.17,96.18,0.06c5.4,0.04,7.01-1.67,6.87-6.8c-0.34-12.18-0.48-24.4,0.06-36.57
		c0.31-7.05-1.34-9.88-9.42-9.51C279.42,705.66,264.04,705.18,248.7,705.18z M497.46,705.15c0-0.01,0-0.02,0-0.04
		c-16.04,0-32.07,0.25-48.1-0.13c-5.86-0.14-7.49,1.52-7.31,7.13c0.43,13.17,0.33,26.37,0.02,39.55c-0.11,4.78,1.5,6.16,6.36,6.13
		c32.41-0.17,64.82-0.14,97.23,0c4.67,0.02,6.6-1.07,6.47-6.06c-0.37-13.18-0.38-26.37,0.01-39.55c0.16-5.71-1.85-7.29-7.6-7.16
		C528.85,705.38,513.15,705.15,497.46,705.15z M1054.4,55.41c16.03,0,32.06-0.15,48.08,0.09c5.07,0.08,7.27-1.02,7.11-6.49
		c-0.4-13.17-0.36-26.36-0.02-39.53c0.13-5.35-2-6.63-7.15-6.61c-32.05,0.14-64.12,0.1-96.17-0.09c-5.21-0.03-7.16,1.48-7.03,6.74
		c0.34,12.84,0.48,25.71-0.08,38.54c-0.28,6.44,2.23,7.63,8.19,7.5C1023.02,55.2,1038.71,55.43,1054.4,55.41z"/>
	<path class="st2" d="M-20.48,126.65c1.99,0.09,3.98,0.18,5.97,0.28C-16.59,128.7-18.59,128.76-20.48,126.65z"/>
	<path class="st2" d="M361,54.84c0.71-0.59,1.43-1.18,2.14-1.77C363.52,54.89,362.52,55.16,361,54.84z"/>
	<path class="st2" d="M979.19,54.87c0.64-0.6,1.29-1.19,1.93-1.79C981.64,54.86,980.68,55.14,979.19,54.87z"/>
	<path class="st2" d="M1354.66,897.72c-0.7-0.67-1.41-1.34-2.11-2.01C1354.26,895.37,1354.98,896.04,1354.66,897.72z"/>
	<path class="st2" d="M254.71,53.07c0.74,0.63,1.48,1.27,2.22,1.9C255.36,55.25,254.36,54.9,254.71,53.07z"/>
	<path class="st2" d="M1189.31,444.97c-0.64,0.58-1.29,1.16-1.93,1.74C1187.03,445.1,1187.81,444.66,1189.31,444.97z"/>
	<path class="st2" d="M256.95,3.45c-0.75,0.73-1.5,1.46-2.26,2.19C254.41,3.9,255.05,3.07,256.95,3.45z"/>
	<path class="st2" d="M875.14,3.46c-0.7,0.72-1.4,1.44-2.1,2.16C872.59,3.85,873.26,3.1,875.14,3.46z"/>
	<path class="st2" d="M363.12,5.62c-0.71-0.69-1.42-1.37-2.14-2.06C362.82,3.14,363.52,3.85,363.12,5.62z"/>
	<path class="st2" d="M981.14,5.61c-0.66-0.67-1.31-1.35-1.97-2.02C980.98,3.2,981.48,4.02,981.14,5.61z"/>
</g>
</svg>
