<?xml version="1.0" standalone="no"?>
<!DOCTYPE svg PUBLIC "-//W3C//DTD SVG 20010904//EN"
 "http://www.w3.org/TR/2001/REC-SVG-20010904/DTD/svg10.dtd">
<svg version="1.0" xmlns="http://www.w3.org/2000/svg"
 width="2508.000000pt" height="2054.000000pt" viewBox="0 0 2508.000000 2054.000000"
 preserveAspectRatio="xMidYMid meet">

<g transform="translate(0.000000,2054.000000) scale(0.100000,-0.100000)"
fill="#000000" stroke="none">
<path d="M13456 19294 c-3 -9 -7 -338 -7 -732 -1 -394 -5 -924 -8 -1177 l-6
-460 -209 365 c-371 648 -742 1271 -1073 1805 -69 110 -126 201 -127 202 -5 5
-677 -55 -683 -60 -1 -2 84 -4970 86 -4974 1 -2 217 -3 481 -3 l479 0 -4 63
c-10 134 -14 2460 -5 2451 33 -33 728 -1295 1238 -2249 l139 -260 311 -3 310
-2 6 92 c3 51 21 1112 40 2358 20 1246 38 2324 41 2397 l5 131 -38 6 c-94 15
-819 66 -938 66 -20 0 -34 -6 -38 -16z"/>
<path d="M15056 18957 c-7 -212 -38 -1653 -76 -3487 -11 -536 -21 -1028 -22
-1093 l-3 -117 1365 2 1365 3 80 28 c161 57 255 124 274 195 15 52 15 1770 0
1809 -15 42 -75 98 -162 154 -43 28 -77 52 -75 54 2 1 38 12 81 24 44 12 92
28 109 37 58 30 58 26 58 682 0 574 1 601 20 657 11 33 30 70 43 83 57 62 172
92 384 101 l151 6 -291 119 c-161 66 -413 170 -562 231 -724 301 -1575 535
-2471 680 -121 20 -229 38 -240 40 -22 5 -22 3 -28 -208z m1150 -582 c238 -54
453 -108 717 -183 l239 -67 -7 -365 c-4 -201 -10 -432 -14 -514 l-6 -150 -190
-34 c-179 -33 -194 -34 -270 -23 -44 7 -214 32 -378 56 -164 23 -301 46 -304
49 -3 3 0 202 6 443 19 750 22 823 36 823 7 0 84 -16 171 -35z m175 -1989
l346 -44 79 -45 c43 -24 129 -70 191 -100 61 -31 114 -61 117 -66 8 -12 -15
-1084 -23 -1092 -3 -3 -96 -2 -206 2 -110 4 -366 12 -570 19 -203 6 -372 13
-375 15 -3 2 3 286 12 632 9 345 17 649 17 676 1 46 1 47 34 47 17 0 188 -20
378 -44z"/>
<path d="M10285 19083 c-61 -5 -376 -69 -615 -124 -608 -140 -1206 -330 -1740
-552 -80 -33 -284 -117 -453 -187 l-308 -127 158 -6 c266 -10 380 -53 411
-157 39 -128 54 -448 51 -1110 -1 -311 -1 -1014 -1 -1562 l2 -998 512 0 512 0
140 93 c274 183 439 269 651 339 174 59 265 62 528 17 108 -18 197 -35 196
-38 0 -4 -27 -26 -60 -50 -33 -24 -58 -46 -55 -48 3 -3 51 -14 107 -24 56 -10
104 -21 106 -23 2 -2 -67 -56 -155 -120 -88 -64 -165 -123 -172 -131 -11 -13
9 -15 172 -15 214 0 259 9 393 74 96 48 162 104 191 164 17 35 17 81 0 987 -9
523 -19 1006 -23 1074 -6 117 -8 126 -34 155 -35 41 -108 80 -223 121 l-90 33
54 27 c153 77 263 172 275 236 3 19 -2 406 -13 860 -19 813 -20 828 -41 873
-29 59 -121 142 -196 177 -52 24 -190 53 -228 47 -7 -1 -30 -3 -52 -5z m-471
-705 c6 -41 30 -1088 25 -1092 -2 -2 -92 -49 -199 -104 l-195 -100 -145 -22
c-80 -12 -246 -40 -369 -61 -123 -22 -226 -37 -229 -35 -7 8 -30 1150 -23
1158 22 24 1031 284 1113 287 12 1 19 -9 22 -31z m-149 -2048 c105 -29 193
-56 197 -59 7 -6 42 -1190 35 -1197 -7 -7 -1143 -40 -1150 -33 -13 10 -38
1232 -25 1240 5 3 164 27 351 53 188 26 349 49 357 51 20 4 16 5 235 -55z"/>
<path d="M5487 14930 c-257 -69 -472 -153 -782 -304 -755 -369 -1599 -966
-2795 -1976 -102 -86 -225 -185 -275 -219 -112 -79 -147 -118 -133 -145 17
-31 2 -77 -47 -151 l-47 -70 5 -75 c2 -41 12 -88 21 -105 9 -16 16 -36 16 -42
0 -7 7 -31 16 -53 12 -30 22 -40 38 -40 22 0 68 41 78 70 7 19 744 775 982
1008 139 136 273 250 624 530 534 426 681 528 894 616 102 42 222 69 226 51 4
-17 -32 -156 -75 -290 -84 -260 -209 -557 -368 -875 -177 -353 -236 -453
-1027 -1725 -686 -1104 -879 -1438 -1164 -2009 -90 -181 -164 -332 -164 -335
0 -3 46 -6 103 -6 96 0 110 -3 242 -49 165 -57 240 -63 337 -26 115 43 171 93
713 640 995 1003 1312 1338 1526 1611 37 46 118 140 180 208 176 193 267 298
340 397 37 50 78 98 91 106 54 36 148 131 282 287 78 91 175 196 215 233 67
62 155 128 171 128 4 0 1 -33 -6 -72 -42 -243 -131 -511 -301 -913 -270 -635
-366 -832 -639 -1321 -140 -251 -261 -494 -304 -612 -41 -112 -80 -264 -80
-312 0 -22 -7 -43 -15 -50 -34 -28 -56 -72 -75 -146 -10 -43 -17 -80 -15 -82
8 -8 211 79 356 152 549 277 1157 745 1795 1381 328 327 734 781 734 820 0 9
64 85 143 168 78 84 168 181 200 216 50 55 57 59 51 35 -23 -97 -167 -463
-303 -768 -39 -88 -70 -160 -68 -162 1 -2 98 70 214 160 116 90 222 166 235
170 66 17 129 -11 147 -67 10 -29 9 -42 -3 -72 -17 -39 -14 -35 -564 -833
l-374 -543 6 -42 c13 -86 38 -148 65 -161 54 -28 137 -39 257 -34 131 6 217
30 324 93 39 22 74 34 117 38 97 10 174 41 363 144 96 52 238 123 315 157 238
105 1224 561 1220 564 -1 2 -238 -74 -526 -168 -543 -177 -624 -197 -734 -185
-182 20 -278 75 -332 192 -42 91 -42 167 1 321 119 429 312 909 600 1497 109
222 867 1660 1212 2300 24 44 57 120 74 169 37 104 49 126 104 183 35 38 37
43 21 49 -32 13 -198 -14 -291 -46 -184 -64 -422 -197 -703 -394 l-144 -101
-90 -135 c-130 -194 -233 -335 -571 -785 -327 -434 -443 -595 -587 -810 -61
-91 -117 -162 -162 -205 -140 -131 -241 -257 -669 -830 -152 -204 -258 -330
-395 -470 -62 -63 -113 -119 -113 -125 0 -22 -51 -117 -90 -169 -23 -30 -106
-111 -186 -180 l-144 -127 -25 25 c-14 14 -25 36 -25 50 0 38 40 135 119 291
44 87 76 165 85 205 10 49 43 119 131 280 297 543 563 1078 710 1425 37 88 99
228 137 310 178 380 305 704 460 1170 161 484 159 511 -30 358 -29 -24 -65
-46 -80 -49 -258 -59 -592 -221 -842 -410 -233 -177 -365 -315 -678 -714 -577
-735 -913 -1140 -1137 -1370 -93 -96 -251 -272 -350 -390 -287 -344 -404 -476
-546 -620 -74 -74 -192 -207 -263 -295 -157 -194 -295 -333 -400 -403 -43 -29
-81 -50 -84 -48 -18 19 654 1123 1390 2281 679 1071 1064 1722 1313 2226 l75
151 0 99 c0 109 -11 144 -51 165 -39 20 -78 17 -202 -16z"/>
<path d="M13769 13456 c-85 -24 -453 -166 -544 -211 -421 -207 -941 -570
-1268 -885 -125 -121 -137 -130 -173 -130 -54 0 -103 32 -111 71 -5 26 -15 35
-61 56 -130 57 -415 133 -656 174 l-132 23 -237 -68 c-131 -37 -317 -88 -415
-112 -369 -93 -563 -203 -735 -418 -116 -144 -266 -315 -526 -601 -130 -142
-283 -311 -340 -375 -129 -142 -323 -375 -415 -496 l-68 -90 -4 -89 -4 -88
129 6 c153 8 278 37 517 122 312 111 585 260 894 489 52 39 124 88 160 109 36
20 91 60 123 87 31 27 67 52 80 55 12 4 66 32 119 63 66 39 97 62 94 72 -2 8
-5 21 -7 29 -3 9 31 28 99 57 77 32 122 59 175 104 39 33 74 60 78 60 20 0 70
-56 84 -95 20 -52 15 -94 -21 -168 -13 -28 -24 -63 -24 -79 0 -15 -16 -52 -35
-83 -55 -85 -130 -245 -150 -318 -29 -107 -9 -138 100 -158 75 -14 483 22 592
52 192 53 558 183 814 289 117 49 159 73 148 85 -9 8 -128 -15 -384 -75 -137
-33 -266 -61 -285 -62 l-35 -3 -3 87 c-5 144 54 341 173 578 66 132 143 267
155 275 15 9 90 -34 141 -82 27 -25 80 -92 118 -148 39 -56 86 -116 106 -133
39 -35 106 -72 129 -72 8 0 28 -19 44 -42 16 -24 105 -137 197 -253 280 -353
372 -504 379 -622 3 -45 15 -94 35 -145 51 -127 41 -210 -48 -389 -55 -109
-124 -207 -234 -330 -84 -93 -106 -111 -213 -174 -110 -64 -300 -190 -629
-415 -153 -105 -245 -152 -417 -214 -300 -108 -581 -166 -811 -166 -93 0 -126
10 -163 52 -75 81 -77 165 -14 433 16 66 28 121 26 122 -2 2 -16 -31 -31 -74
-15 -43 -33 -85 -40 -93 -7 -8 -65 -137 -129 -287 -79 -186 -116 -284 -116
-310 0 -21 -11 -65 -25 -98 l-24 -59 32 -28 c37 -32 71 -34 243 -17 346 34
716 142 1089 319 445 210 970 576 1311 915 60 61 131 129 156 151 25 23 66 68
91 100 25 33 91 111 148 174 119 134 175 202 195 241 13 27 13 29 -12 42 l-27
14 22 15 c93 65 126 126 157 282 l17 83 36 -8 c20 -5 50 -9 68 -9 18 0 96 -30
182 -71 l150 -72 58 23 c485 192 1044 582 1570 1094 150 146 175 175 233 272
175 294 271 537 321 809 11 63 20 75 56 75 41 0 116 32 182 76 36 24 67 42 69
40 7 -8 -69 -250 -115 -365 -95 -241 -216 -488 -391 -796 -74 -131 -465 -797
-588 -1002 l-43 -72 87 -41 87 -41 130 62 c146 71 274 159 544 375 332 267
611 523 999 919 151 154 272 271 269 260 -3 -11 -17 -65 -31 -120 -14 -55 -57
-203 -96 -330 -144 -468 -164 -559 -158 -744 3 -105 8 -136 28 -186 l25 -60
85 -17 c142 -29 218 -33 285 -13 167 48 392 145 580 250 166 93 164 91 106 92
-33 0 -74 12 -128 37 -44 20 -90 36 -101 36 -16 0 -24 10 -33 42 -22 82 -49
238 -58 335 l-9 98 79 213 c162 437 314 800 465 1111 52 107 92 196 90 199
-19 18 -187 -55 -309 -135 -40 -26 -107 -61 -149 -79 -129 -54 -326 -160 -462
-251 -235 -156 -360 -266 -821 -723 -372 -367 -554 -539 -659 -620 -13 -10 -4
12 24 65 101 185 842 1381 1183 1910 47 72 83 131 82 133 -7 8 -245 -77 -365
-130 -160 -70 -223 -103 -626 -329 -173 -97 -309 -168 -312 -161 -2 6 -18 30
-36 54 -67 87 -81 125 -80 215 l0 82 -30 13 c-82 34 -292 0 -496 -81 -57 -22
-105 -39 -107 -37 -6 5 58 150 74 168 25 28 10 49 -29 41 -195 -37 -514 -202
-776 -402 -299 -228 -679 -596 -821 -795 -222 -313 -315 -540 -389 -946 l-8
-45 -54 95 c-30 52 -144 230 -255 395 -225 336 -398 607 -492 767 l-62 108 -2
124 c-2 110 1 129 20 170 39 80 134 148 370 266 161 80 269 113 376 114 83 1
96 -2 158 -32 37 -18 67 -36 67 -40 0 -4 -54 -142 -120 -307 -66 -164 -118
-301 -115 -303 5 -5 238 135 324 196 36 25 94 77 130 114 35 38 104 100 152
139 95 75 129 119 129 165 0 16 20 74 44 129 24 55 58 149 76 209 37 124 36
125 -45 126 -28 0 -59 7 -69 15 -24 18 -93 18 -157 1z m1385 -730 c67 -20 121
-61 166 -123 55 -77 73 -155 68 -289 -4 -101 -7 -115 -41 -184 -22 -45 -37
-89 -37 -111 0 -76 -92 -260 -209 -416 -81 -110 -305 -335 -389 -392 -120 -81
-240 -121 -364 -121 -194 0 -313 102 -325 277 -4 58 34 355 63 496 5 22 34 46
147 121 78 52 173 117 212 145 69 50 69 51 66 94 -4 69 42 164 140 293 70 91
215 189 314 213 61 14 137 13 189 -3z m-4439 -523 c94 -30 198 -63 233 -75
l63 -20 -3 -56 -3 -56 -85 -17 c-130 -25 -153 -39 -285 -167 -233 -228 -470
-408 -920 -697 -258 -165 -835 -511 -835 -500 0 2 33 42 73 88 39 47 115 140
168 208 172 222 316 378 704 764 211 209 416 416 456 460 67 73 80 82 149 107
41 14 84 24 95 21 11 -3 97 -30 190 -60z"/>
<path d="M24205 13293 c-22 -8 -97 -19 -166 -23 -113 -8 -130 -11 -165 -35
-37 -26 -43 -27 -121 -20 l-83 6 -177 -90 c-203 -103 -243 -133 -280 -204 -14
-29 -107 -159 -207 -290 -219 -289 -201 -267 -211 -267 -29 0 -85 -38 -106
-71 -21 -34 -28 -39 -62 -39 -53 0 -67 -10 -128 -87 -66 -84 -115 -130 -154
-143 -18 -7 -47 -34 -75 -72 -29 -39 -71 -78 -119 -111 -66 -44 -229 -173
-511 -402 -174 -141 -379 -259 -539 -309 -46 -15 -86 -24 -89 -21 -7 7 41 185
90 330 150 451 403 891 725 1258 28 31 68 86 88 122 21 36 92 124 158 196
l121 132 -40 -8 c-21 -4 -68 -11 -104 -16 -81 -9 -442 -134 -499 -172 -24 -16
-47 -41 -53 -58 -6 -19 -19 -31 -36 -36 -63 -16 -129 -55 -165 -98 -31 -37
-41 -43 -56 -36 -15 9 -40 -20 -175 -202 -91 -123 -173 -223 -194 -237 -107
-73 -148 -125 -288 -366 -82 -142 -160 -290 -196 -376 -38 -90 -69 -149 -85
-162 -87 -70 -228 -171 -305 -217 -49 -29 -98 -66 -109 -81 -17 -23 -23 -26
-39 -16 -14 9 -30 8 -75 -7 -62 -22 -66 -20 -84 41 -18 63 4 129 122 375 42
86 83 179 93 209 19 60 108 184 199 280 94 99 549 850 528 871 -5 5 -54 21
-109 35 -85 23 -126 27 -291 31 -114 3 -233 1 -295 -6 -231 -26 -715 -144
-798 -194 -19 -11 -58 -38 -86 -59 -56 -42 -123 -69 -151 -62 -10 3 -34 -5
-53 -18 -32 -22 -36 -29 -42 -87 -15 -136 -52 -212 -211 -436 -149 -210 -202
-265 -283 -294 -70 -26 -154 -96 -228 -191 l-49 -62 119 60 c323 165 484 278
1062 745 94 75 172 137 175 137 2 0 12 -21 22 -46 48 -125 -8 -260 -285 -694
-47 -74 -96 -164 -109 -200 -32 -88 -84 -191 -181 -354 -101 -172 -121 -212
-155 -307 l-27 -76 32 -69 c32 -72 76 -126 122 -150 52 -27 136 -17 385 46
131 33 254 67 273 76 42 19 114 71 370 269 265 206 350 269 354 264 2 -2 -4
-44 -14 -94 -35 -170 -61 -327 -56 -333 3 -3 30 -5 60 -5 51 0 94 16 218 81 3
2 9 -6 13 -17 6 -19 6 -19 48 -1 50 23 100 25 116 6 10 -12 29 -8 124 21 505
158 1010 395 1357 638 146 102 381 257 385 253 7 -6 -137 -233 -168 -266 -21
-21 -32 -44 -34 -66 -2 -41 -29 -97 -93 -191 -55 -82 -90 -148 -90 -170 0 -9
9 -34 21 -56 11 -23 19 -42 17 -44 -2 -1 -26 -10 -55 -19 -50 -17 -63 -30 -63
-64 0 -10 -11 -34 -25 -54 -19 -27 -23 -44 -19 -67 7 -32 5 -34 -48 -45 -34
-8 -68 -69 -68 -120 0 -33 -45 -129 -92 -198 -11 -15 -25 -50 -32 -76 -10 -41
-10 -51 1 -58 11 -7 -33 -74 -187 -284 -111 -151 -217 -304 -236 -340 -68
-129 -202 -277 -399 -439 -49 -41 -110 -93 -135 -117 -25 -23 -112 -84 -195
-134 -82 -51 -160 -101 -173 -113 -26 -24 -147 -235 -139 -243 6 -6 168 74
344 172 399 221 725 458 1002 728 140 137 454 492 547 618 43 59 164 289 164
313 0 6 25 33 55 59 30 26 55 52 55 57 0 5 -12 14 -27 20 l-26 10 30 32 c39
42 62 82 113 199 32 75 52 107 90 142 27 25 54 46 59 46 6 0 15 19 22 42 8 32
31 63 91 124 76 78 79 83 73 117 -6 30 -4 36 14 42 12 3 21 14 21 24 0 9 18
35 41 56 57 56 115 148 190 300 56 113 73 139 133 197 59 56 68 69 57 82 -11
13 5 42 105 188 304 445 498 708 523 708 9 0 25 15 36 33 34 57 137 199 223
306 46 57 82 104 80 106 -2 1 -21 -4 -43 -12z"/>
<path d="M7184 10548 c-693 -535 -1060 -817 -1175 -899 -57 -41 -127 -96 -156
-123 -61 -56 -61 -57 -836 -1292 -571 -910 -575 -918 -533 -953 49 -41 694
-431 712 -431 12 0 26 6 31 13 5 6 151 305 323 663 l313 652 91 -24 c50 -14
144 -40 208 -59 126 -37 178 -42 217 -21 31 17 471 738 478 783 3 18 3 43 0
55 -4 13 -67 94 -141 179 l-134 154 52 75 c88 126 754 1091 915 1325 91 133
150 228 148 240 -6 52 -40 29 -513 -337z"/>
<path d="M20710 10174 c-1365 -176 -2622 -413 -3470 -655 -282 -81 -650 -206
-758 -260 -290 -141 -430 -339 -392 -549 6 -34 22 -85 34 -114 28 -63 590
-1020 616 -1049 4 -5 453 247 996 558 1163 668 1083 622 1064 603 -13 -14
-321 -273 -1120 -943 -118 -99 -322 -269 -452 -379 l-238 -199 53 -61 c525
-611 790 -907 844 -943 145 -97 286 -107 451 -32 176 79 314 215 609 599 451
587 1043 1548 1623 2635 137 258 420 808 420 818 0 4 -3 7 -7 6 -5 0 -127 -16
-273 -35z"/>
<path d="M6824 8635 c-14 -14 -24 -31 -22 -37 3 -7 427 -268 943 -581 l940
-569 17 22 c25 30 23 74 -4 103 -13 14 -418 264 -901 556 -950 575 -920 559
-973 506z"/>
<path d="M6632 8336 c-45 -73 -82 -140 -82 -149 0 -9 5 -26 10 -39 8 -16 298
-197 893 -557 485 -294 894 -539 909 -545 53 -20 75 -1 165 142 47 74 83 135
81 136 -7 6 -1855 1124 -1873 1133 -19 10 -27 0 -103 -121z"/>
<path d="M11603 8345 c-68 -35 -127 -65 -132 -67 -6 -2 -7 -136 -2 -368 7
-336 9 -369 27 -410 12 -25 28 -51 37 -58 24 -20 520 -30 1637 -33 852 -2 968
0 1075 15 66 9 123 20 127 24 18 18 28 235 18 389 -5 87 -10 224 -10 305 l0
147 -37 40 c-58 60 -91 66 -358 61 -126 -3 -338 -3 -470 -1 -413 6 -631 5
-895 -3 -202 -7 -301 -5 -473 8 -119 9 -263 16 -320 16 l-102 -1 -122 -64z
m939 -521 c26 -9 50 -19 53 -24 7 -12 -116 -40 -223 -50 -89 -8 -149 -6 -457
16 l-100 7 43 19 c29 13 85 23 170 29 70 5 174 13 232 18 125 11 218 6 282
-15z m738 -26 c43 -14 37 -24 -21 -38 -64 -16 -134 -9 -229 21 l-75 24 65 6
c81 8 220 1 260 -13z m1051 -206 c-6 -36 -16 -71 -23 -78 -15 -14 -127 -31
-268 -39 -52 -3 -620 -2 -1262 3 l-1168 8 -29 28 c-30 29 -51 89 -51 147 l0
33 28 -26 c40 -37 53 -40 217 -49 110 -5 167 -13 215 -29 62 -20 77 -21 295
-15 182 5 252 4 335 -9 182 -26 249 -28 475 -12 121 9 273 16 339 16 l118 0
60 45 c33 25 69 45 80 45 10 0 31 -13 46 -29 17 -18 45 -34 75 -42 60 -15 179
-7 232 15 33 14 41 14 60 2 12 -8 42 -17 66 -21 55 -8 84 12 131 91 l33 55 3
-36 c2 -20 -1 -66 -7 -103z"/>
<path d="M17176 7670 l-1038 -638 -57 27 c-50 23 -68 26 -166 26 -100 0 -115
-2 -163 -27 -75 -39 -2248 -1552 -2300 -1602 -24 -22 -57 -70 -75 -106 -30
-60 -32 -72 -32 -165 0 -92 3 -106 32 -167 64 -135 184 -216 336 -225 155 -10
89 -51 1347 825 619 430 1140 799 1159 820 18 20 48 66 65 102 28 59 31 74 31
161 l0 96 948 749 c837 660 969 766 955 763 -2 0 -470 -287 -1042 -639z
m-1158 -645 c52 -16 162 -103 162 -130 0 -9 -1896 -1313 -2266 -1558 l-42 -28
-48 48 c-68 68 -129 96 -210 96 -36 0 -62 3 -57 7 4 4 506 354 1115 778 789
550 1120 775 1155 786 63 19 127 20 191 1z"/>
<path d="M8800 7465 c-7 -9 -10 -18 -7 -21 3 -3 66 -18 139 -34 156 -32 256
-60 392 -107 211 -73 288 -125 516 -348 206 -201 326 -299 539 -440 353 -232
611 -359 1116 -550 271 -102 415 -170 545 -256 247 -163 319 -310 251 -514
-33 -96 -117 -262 -128 -251 -3 2 8 37 23 78 40 108 40 221 -1 301 -18 36 -54
82 -95 120 -141 133 -327 233 -695 372 -385 145 -574 231 -825 373 -360 203
-574 367 -883 674 -159 158 -284 233 -507 306 -145 47 -419 112 -474 112 -18
0 -41 -30 -114 -146 -56 -89 -92 -157 -92 -173 0 -62 353 -449 510 -560 113
-80 173 -106 440 -196 269 -91 437 -163 635 -274 363 -204 610 -384 990 -721
218 -194 342 -291 467 -365 225 -134 375 -161 518 -93 55 26 194 163 241 238
19 30 49 87 66 125 122 268 67 428 -210 612 -129 85 -294 163 -557 263 -487
185 -735 306 -1073 521 -247 158 -384 269 -637 514 -144 141 -218 198 -317
248 -134 69 -350 137 -572 182 -143 29 -184 31 -201 10z"/>
<path d="M13208 7300 c-77 -9 -166 -34 -189 -53 -37 -28 -40 -55 -50 -395 -6
-185 -9 -365 -6 -399 5 -71 30 -119 76 -146 28 -17 58 -17 513 -7 266 5 593
10 727 10 229 0 246 1 277 21 19 11 34 25 34 31 0 8 -218 8 -723 3 -656 -6
-727 -6 -755 9 -17 9 -36 25 -41 35 -9 17 -5 18 48 19 31 0 120 17 197 36 228
57 263 61 396 37 62 -11 187 -25 278 -31 91 -6 197 -14 235 -20 133 -18 166
-11 145 31 -7 13 -28 41 -47 61 l-35 36 48 8 c27 4 85 8 130 8 99 1 118 -10
109 -65 -5 -31 -3 -39 17 -53 25 -18 112 -22 151 -7 14 6 226 150 473 322 246
171 472 323 502 337 30 14 86 30 124 36 38 6 67 15 65 21 -7 21 -84 65 -142
80 -50 14 -117 16 -410 13 -600 -4 -983 -1 -1170 11 -231 15 -890 22 -977 11z"/>
<path d="M10080 7284 c-83 -16 -88 -21 -104 -94 -25 -111 -28 -106 92 -221
173 -169 386 -327 648 -481 103 -61 117 -67 212 -82 137 -21 281 -20 429 4
201 33 274 35 385 11 53 -11 155 -25 225 -31 70 -6 156 -16 191 -21 87 -15 92
-12 92 63 0 113 27 167 75 148 11 -5 49 -34 84 -65 35 -31 75 -61 88 -66 37
-14 151 -11 213 6 30 8 56 15 58 15 1 0 2 -12 2 -26 0 -36 -47 -77 -110 -97
-126 -41 -289 -43 -1045 -17 -148 5 -355 12 -460 15 l-190 6 45 -24 c48 -26
109 -30 610 -42 96 -2 270 -10 385 -16 345 -19 674 -1 777 43 82 35 79 23 83
320 5 294 -5 445 -36 543 -24 79 -28 81 -174 97 -81 9 -141 8 -305 -6 -237
-19 -364 -20 -545 -4 -80 7 -407 12 -845 12 -393 1 -746 4 -785 8 -38 4 -81 4
-95 2z"/>
<path d="M11865 6194 c-183 -7 -390 -25 -402 -36 -7 -6 -13 -14 -13 -18 0 -5
44 -25 98 -46 396 -152 496 -198 651 -301 182 -122 287 -244 306 -358 13 -76
6 -71 108 -72 55 0 136 -9 202 -23 80 -17 157 -24 282 -28 162 -4 173 -3 179
14 19 57 63 130 103 172 25 26 243 184 484 351 240 167 437 308 437 312 0 5
-258 8 -572 7 -315 -1 -692 4 -838 10 -287 12 -880 22 -1025 16z"/>
<path d="M8604 6180 c-110 -9 -209 -36 -239 -66 -26 -26 -35 -87 -35 -234 0
-80 -5 -228 -11 -330 -15 -231 -7 -285 52 -344 l39 -38 453 8 c585 12 1067 10
1287 -5 212 -14 821 -27 845 -17 15 6 14 9 -8 26 -24 19 -41 20 -274 20 -136
0 -385 7 -553 16 -248 12 -436 14 -1005 8 l-700 -7 -33 28 c-17 15 -32 31 -32
36 0 5 24 9 53 9 31 0 131 19 231 45 197 50 259 55 378 29 40 -8 143 -19 228
-24 85 -5 171 -14 190 -19 19 -6 65 -11 101 -11 63 0 67 1 62 20 -3 11 -25 42
-49 69 l-44 49 53 6 c160 18 173 18 210 2 38 -15 38 -16 32 -60 -10 -62 1 -66
197 -66 151 0 171 -2 267 -30 115 -33 193 -38 249 -15 38 17 180 106 181 115
1 9 -239 185 -364 268 -325 215 -606 355 -924 458 l-164 54 -281 4 c-155 3
-331 1 -392 -4z"/>
<path d="M16025 6151 l-70 -6 -408 -284 c-225 -156 -406 -285 -404 -288 3 -2
68 1 145 8 201 17 363 9 427 -20 l50 -23 -40 -14 c-112 -41 -379 -56 -615 -35
l-85 8 -89 -61 -89 -61 69 -6 c38 -4 105 -16 148 -29 76 -21 91 -22 295 -15
167 5 249 3 361 -9 244 -27 352 -29 528 -12 89 9 210 16 267 16 l105 0 56 45
c31 25 65 45 79 45 23 0 50 -19 57 -40 13 -39 187 -52 278 -20 47 16 58 17 76
5 11 -7 41 -16 65 -20 56 -8 84 12 131 93 l33 57 3 -38 c5 -54 -15 -168 -31
-184 -19 -20 -121 -34 -297 -41 -201 -9 -2243 5 -2335 16 -62 7 -74 5 -102
-13 -37 -23 -40 -30 -15 -40 28 -12 2493 -25 2609 -14 132 12 205 26 214 41
17 28 21 157 13 393 -4 138 -7 290 -6 339 3 78 1 92 -20 123 -42 63 -84 76
-248 81 -80 3 -251 -1 -380 -7 -204 -11 -248 -10 -335 3 -99 16 -294 19 -440
7z m443 -611 c17 -6 32 -16 32 -21 0 -5 -25 -16 -56 -25 -69 -20 -125 -14
-239 24 l-80 27 45 7 c68 9 260 2 298 -12z"/>
<path d="M6917 4906 c-356 -266 -650 -486 -653 -489 -10 -9 384 -493 411 -505
14 -7 43 -12 64 -12 34 0 68 22 312 204 l274 203 3 72 c2 39 6 71 10 71 4 0
25 -7 47 -15 22 -8 51 -14 65 -15 31 0 472 323 501 367 12 17 19 46 19 75 0
53 10 38 -228 335 -85 106 -159 193 -166 192 -6 0 -303 -218 -659 -483z m733
89 c35 -44 67 -85 72 -91 6 -8 -48 -54 -164 -139 l-172 -128 -51 18 c-41 14
-60 29 -99 77 -27 33 -49 67 -50 74 0 7 84 76 188 154 151 112 192 138 201
128 6 -7 40 -49 75 -93z m-587 -373 c47 -59 56 -76 61 -123 l6 -54 -198 -147
c-110 -82 -201 -148 -204 -148 -7 0 -157 185 -160 198 -2 7 390 312 438 341 1
1 27 -30 57 -67z"/>
<path d="M18004 5133 c-93 -114 -170 -210 -172 -214 -3 -7 1297 -994 1309
-994 3 0 68 77 144 170 76 94 153 188 171 210 l33 41 -74 57 c-41 31 -78 57
-82 57 -5 0 -48 -49 -96 -109 -48 -60 -94 -114 -101 -120 -10 -9 -61 25 -229
151 -119 90 -216 167 -217 171 0 4 41 58 90 119 50 61 90 114 88 119 -2 4 -36
33 -77 63 l-73 55 -96 -117 c-52 -64 -97 -116 -99 -116 -3 1 -93 68 -200 149
-175 133 -193 148 -180 163 55 65 189 234 186 236 -26 19 -137 101 -145 108
-7 5 -70 -63 -180 -199z"/>
<path d="M12650 5213 c-151 -3 -169 -8 -170 -38 0 -10 673 -10 738 1 23 4 32
10 32 24 0 19 -8 20 -222 18 -123 -1 -293 -4 -378 -5z"/>
<path d="M17683 4768 c-45 -40 -82 -76 -82 -79 -1 -4 123 -133 275 -288 152
-154 272 -281 267 -280 -4 0 -181 81 -393 179 l-385 178 -55 -54 -54 -54 114
-117 c460 -471 1028 -1043 1036 -1043 5 1 45 34 89 75 l80 75 -285 285 c-157
157 -282 285 -279 285 3 0 183 -80 400 -179 l394 -178 52 45 c29 25 53 51 52
56 0 6 -258 271 -572 589 l-572 579 -82 -74z"/>
<path d="M7555 4234 c-292 -300 -547 -564 -568 -588 l-38 -44 48 -44 c26 -25
64 -59 84 -76 l36 -32 304 314 c167 173 305 313 307 312 1 -2 -86 -185 -193
-407 -108 -222 -194 -409 -193 -415 4 -14 135 -134 147 -134 4 0 86 160 182
355 l174 356 49 -41 c39 -32 56 -40 90 -40 22 0 55 8 71 18 30 19 452 450 469
479 15 27 11 109 -7 136 -14 22 -395 373 -422 389 -6 3 -249 -239 -540 -538z
m651 174 c43 -40 79 -75 79 -79 0 -3 -72 -81 -161 -171 l-161 -165 -85 76 -85
76 160 167 c88 93 163 168 167 168 4 0 42 -32 86 -72z"/>
<path d="M11050 3930 l0 -390 155 0 155 0 0 50 0 50 -90 0 -90 0 0 130 0 130
85 0 85 0 0 45 0 44 -82 3 -83 3 0 115 0 115 88 3 87 3 0 44 0 45 -155 0 -155
0 0 -390z"/>
<path d="M11430 4300 c-18 -18 -20 -33 -20 -133 0 -131 -7 -117 139 -286 l81
-95 0 -73 0 -73 -45 0 -45 0 0 85 0 85 -65 0 -65 0 0 -113 c0 -106 2 -115 23
-135 21 -20 34 -22 151 -22 121 0 128 1 151 25 24 23 25 30 25 139 l0 115 -52
63 c-28 35 -78 93 -110 130 l-59 67 3 73 3 73 40 0 40 0 3 -67 3 -68 64 0 65
0 0 90 c0 83 -2 93 -25 115 -23 24 -29 25 -155 25 -117 0 -132 -2 -150 -20z"/>
<path d="M11810 4275 l0 -44 63 -3 62 -3 3 -342 2 -343 60 0 60 0 2 343 3 342
63 3 62 3 0 44 0 45 -190 0 -190 0 0 -45z"/>
<path d="M12490 4290 c-18 -18 -20 -33 -20 -140 l0 -120 65 0 64 0 3 88 3 87
75 0 75 0 3 -60 c2 -32 1 -69 -3 -82 -3 -12 -68 -117 -145 -233 -121 -182
-140 -216 -140 -250 l0 -40 215 0 215 0 0 55 0 55 -130 0 -129 0 119 182 120
182 0 131 c0 175 12 165 -203 165 -154 0 -169 -2 -187 -20z"/>
<path d="M12989 4291 l-24 -19 -3 -328 c-2 -223 1 -336 8 -355 18 -42 48 -49
209 -49 135 0 151 2 175 21 l26 20 0 345 c0 331 -1 345 -20 364 -18 18 -33 20
-184 20 -146 0 -166 -2 -187 -19z m261 -366 l0 -285 -80 0 -80 0 0 285 0 285
80 0 80 0 0 -285z"/>
<path d="M13480 4290 c-19 -19 -20 -33 -20 -364 l0 -345 26 -20 c24 -19 40
-21 176 -21 144 0 182 6 200 34 4 6 8 165 8 354 0 329 -1 343 -20 362 -18 18
-33 20 -185 20 -152 0 -167 -2 -185 -20z m268 -362 l-3 -283 -80 0 -80 0 -3
283 -2 282 85 0 85 0 -2 -282z"/>
<path d="M14080 4070 c-100 -200 -120 -247 -120 -285 l0 -45 130 0 130 0 0
-100 0 -100 65 0 65 0 0 100 0 100 30 0 c29 0 30 1 30 50 0 49 -1 50 -30 50
l-30 0 0 235 0 235 -75 0 -75 0 -120 -240z m140 -125 l0 -105 -55 0 c-30 0
-55 2 -55 5 0 10 100 205 105 205 3 0 5 -47 5 -105z"/>
<path d="M8190 3625 c-272 -349 -496 -638 -498 -644 -2 -5 36 -39 85 -75 82
-60 89 -64 104 -48 53 54 989 1264 984 1272 -6 9 -170 130 -177 130 -1 -1
-226 -286 -498 -635z"/>
<path d="M17093 4250 c-12 -5 -119 -75 -237 -155 -230 -155 -253 -179 -242
-239 7 -36 831 -1170 872 -1200 17 -13 44 -20 75 -20 45 -1 58 6 270 149 122
82 229 161 238 174 30 47 21 99 -31 172 -301 423 -795 1089 -820 1107 -32 23
-85 28 -125 12z m376 -729 c199 -272 361 -496 361 -498 0 -9 -225 -151 -231
-145 -21 22 -719 984 -719 990 1 9 213 152 222 149 4 -1 169 -224 367 -496z"/>
<path d="M8955 3979 c-21 -10 -769 -1183 -794 -1244 -12 -30 -11 -38 5 -72 17
-33 45 -53 229 -162 192 -114 214 -124 260 -125 28 0 59 5 71 12 19 10 280
410 272 416 -2 2 -32 20 -68 41 -36 21 -79 46 -96 57 l-31 18 -98 -155 c-72
-115 -102 -155 -113 -150 -8 3 -53 28 -98 56 l-83 50 122 193 c67 106 214 340
327 519 113 179 208 326 212 327 11 0 188 -104 188 -112 0 -3 -32 -56 -70
-117 -39 -61 -68 -116 -65 -121 11 -18 187 -112 194 -104 4 5 51 78 104 162
103 162 114 195 83 252 -9 15 -92 71 -223 147 -193 114 -212 123 -258 122 -27
0 -59 -5 -70 -10z"/>
<path d="M16191 3705 c-168 -85 -308 -158 -312 -162 -4 -5 13 -45 38 -90 l44
-82 105 52 c66 32 107 48 113 42 5 -6 158 -284 341 -620 183 -335 334 -612
336 -614 6 -6 204 91 204 99 0 4 -151 283 -335 621 -184 338 -335 619 -335
624 0 6 37 29 83 52 132 68 126 56 76 151 -24 45 -46 82 -49 82 -3 -1 -142
-70 -309 -155z"/>
<path d="M9325 2924 c-187 -399 -340 -730 -340 -736 0 -12 198 -99 206 -90 4
4 62 126 130 272 133 286 127 275 133 269 2 -2 11 -143 20 -314 9 -170 19
-324 21 -341 5 -28 14 -34 111 -77 l107 -46 -6 97 c-16 245 -40 831 -35 844 4
8 153 135 332 283 180 147 323 271 319 275 -4 4 -54 26 -111 49 l-103 42 -231
-201 c-127 -111 -232 -199 -234 -197 -3 3 57 158 176 459 l19 47 -84 45 c-47
25 -86 46 -88 46 -2 0 -156 -327 -342 -726z"/>
<path d="M12150 3585 l0 -45 50 0 50 0 0 45 0 45 -50 0 -50 0 0 -45z"/>
<path d="M15675 3463 c-11 -2 -101 -34 -199 -71 -279 -104 -279 -104 -160
-404 91 -230 90 -229 308 -363 80 -49 194 -120 253 -156 l107 -67 58 -138 c31
-77 57 -144 58 -150 0 -11 -147 -71 -154 -63 -2 2 -33 79 -71 171 l-67 167
-77 -29 c-42 -15 -90 -34 -108 -41 l-32 -14 85 -210 c128 -315 123 -313 408
-205 229 86 240 92 254 127 26 65 24 74 -67 298 l-89 220 -63 44 c-34 25 -164
106 -288 181 l-226 136 -57 139 c-32 77 -57 143 -58 147 0 7 128 58 147 58 6
0 32 -53 58 -117 26 -65 51 -122 55 -127 11 -11 210 62 210 78 0 14 -105 276
-130 327 -28 54 -87 78 -155 62z"/>
<path d="M10867 3218 c-11 -30 -379 -1549 -376 -1552 10 -8 597 -136 622 -136
36 0 95 27 107 49 20 39 162 643 156 667 -4 13 -25 42 -47 63 -42 42 -42 45 6
55 17 4 45 15 62 25 30 19 32 27 98 296 73 302 75 323 26 377 -26 29 -43 34
-327 99 -164 38 -304 69 -310 69 -7 0 -14 -6 -17 -12z m321 -255 c86 -19 122
-31 122 -41 0 -8 -21 -101 -47 -207 l-46 -193 -53 -15 c-48 -14 -60 -14 -134
3 -45 10 -84 20 -86 23 -3 2 16 89 41 193 59 245 64 264 73 264 4 0 62 -12
130 -27z m-84 -703 l38 -38 -52 -218 c-29 -121 -56 -228 -61 -240 l-7 -21
-129 29 c-70 16 -129 31 -131 32 -1 2 25 113 58 247 33 134 62 254 65 265 l5
21 87 -19 c75 -17 94 -26 127 -58z"/>
<path d="M14578 3131 c-49 -10 -90 -20 -93 -23 -3 -3 -45 -139 -92 -303 -60
-203 -90 -291 -95 -279 -4 11 -28 132 -54 269 -26 138 -50 253 -53 257 -7 8
-207 -25 -218 -35 -6 -7 287 -1552 298 -1569 7 -10 207 18 220 31 3 3 -20 139
-51 301 -32 162 -57 296 -55 298 1 1 100 -119 220 -268 120 -148 226 -270 234
-270 17 0 188 29 209 35 7 3 -111 159 -279 372 -160 202 -293 373 -296 380 -3
6 50 187 117 400 66 213 123 396 126 406 7 22 -18 21 -138 -2z"/>
<path d="M11598 2258 c-58 -436 -104 -795 -102 -797 5 -5 587 -80 591 -77 2 1
9 44 16 95 10 66 11 94 3 96 -6 2 -87 13 -180 24 -93 11 -171 23 -174 25 -2 3
37 313 87 688 50 376 91 690 91 699 0 13 -18 19 -88 28 -49 6 -99 11 -113 11
l-25 0 -106 -792z"/>
<path d="M13486 2980 c-245 -20 -254 -22 -299 -82 -19 -26 -19 -30 37 -740 31
-392 61 -725 67 -739 6 -15 26 -35 44 -45 33 -17 43 -17 282 0 160 11 257 23
274 32 45 23 69 62 69 112 0 42 -30 435 -34 439 -3 3 -220 -17 -224 -21 -2 -3
3 -82 11 -178 7 -95 11 -176 8 -179 -3 -4 -54 -10 -113 -14 l-107 -7 -5 44
c-3 23 -24 275 -46 558 -22 283 -43 538 -46 566 l-6 52 68 6 c38 3 89 7 114 8
l45 3 6 -50 c4 -28 10 -90 14 -138 l7 -89 111 7 c62 4 114 9 116 11 2 1 -4 89
-13 195 -11 137 -20 199 -32 216 -16 26 -71 54 -101 52 -10 -1 -121 -10 -247
-19z"/>
<path d="M12353 2955 c-64 -27 -60 8 -84 -783 -21 -716 -21 -724 -2 -750 48
-64 44 -63 356 -69 316 -7 319 -6 352 57 22 43 64 1439 44 1476 -26 49 -66 64
-195 69 -347 14 -439 14 -471 0z m441 -193 c4 -6 -29 -1197 -33 -1221 -1 -5
-270 5 -275 10 -4 3 30 1199 33 1217 2 6 271 1 275 -6z"/>
<path d="M10208 2603 l-47 -47 -67 13 c-36 6 -68 10 -71 7 -2 -2 9 -31 25 -63
l30 -59 -35 -57 c-19 -32 -33 -60 -30 -63 2 -3 34 0 70 6 l66 10 47 -50 c51
-54 64 -61 64 -30 0 10 5 41 10 68 11 48 12 49 78 79 l67 30 -67 33 -67 34 -7
68 c-4 37 -9 68 -13 68 -3 0 -27 -21 -53 -47z"/>
<path d="M15026 2570 c-2 -8 -10 -40 -16 -71 -11 -56 -11 -56 -68 -79 -31 -12
-61 -26 -65 -30 -5 -5 20 -23 55 -41 l63 -34 6 -63 c3 -34 8 -65 11 -67 3 -3
28 15 57 41 l51 46 68 -15 c37 -8 68 -14 70 -12 2 2 -11 30 -27 64 l-31 61 23
37 c13 21 30 49 37 62 l12 24 -73 -7 -73 -8 -47 54 c-34 38 -49 49 -53 38z"/>
</g>
</svg>
